<?xml version="1.0" encoding="UTF-8" standalone="no"?>
<svg
   xmlns:dc="http://purl.org/dc/elements/1.1/"
   xmlns:cc="http://creativecommons.org/ns#"
   xmlns:rdf="http://www.w3.org/1999/02/22-rdf-syntax-ns#"
   xmlns:svg="http://www.w3.org/2000/svg"
   xmlns="http://www.w3.org/2000/svg"
   id="svg2"
   version="1.1"
   viewBox="0 0 488 657"
   height="657pt"
   width="488pt">
  <metadata
     id="metadata230">
    <rdf:RDF>
      <cc:Work
         rdf:about="">
        <dc:format>image/svg+xml</dc:format>
        <dc:type
           rdf:resource="http://purl.org/dc/dcmitype/StillImage" />
        <dc:title></dc:title>
      </cc:Work>
    </rdf:RDF>
  </metadata>
  <defs
     id="defs228" />
  <path
     id="path4"
     d=" M 6.00 1.00 C 165.30 1.00 324.61 1.00 483.91 1.00 L 484.52 1.73 C 332.34 1.64 180.16 1.73 27.98 1.70 C 20.65 1.76 13.32 1.53 6.00 1.86 L 6.00 1.00 Z"
     opacity="0.91"
     fill="#8b8a8a" />
  <path
     id="path8"
     d=" M 484.52 1.73 C 485.27 2.70 486.27 3.65 486.01 5.01 C 485.98 145.01 486.01 285.00 486.00 425.00 L 485.16 425.00 C 485.20 417.99 485.45 410.98 485.02 403.98 C 484.97 275.32 485.02 146.67 485.00 18.01 C 484.96 12.58 485.28 7.13 484.52 1.73 Z"
     opacity="0.91"
     fill="#8b8a8a" />
  <path
     id="path10"
     d=" M 4.00 3.00 L 4.89 3.00 C 4.68 7.67 4.71 12.34 4.74 17.01 C 4.74 139.00 4.74 260.98 4.74 382.96 C 4.79 396.64 4.56 410.33 5.00 424.01 L 4.00 424.00 C 4.00 283.67 4.00 143.33 4.00 3.00 Z"
     opacity="0.91"
     fill="#8b8a8a" />
  <path
     id="path12"
     d=" M 9.22 6.84 C 13.78 6.13 18.40 6.53 22.99 6.46 C 51.20 6.41 79.42 6.55 107.64 6.38 C 107.84 16.50 107.60 26.63 107.74 36.75 C 74.94 36.87 42.14 36.77 9.34 36.79 C 9.18 26.81 9.47 16.82 9.22 6.84 Z"
     opacity="1.00"
     fill="#c00000" />
  <path
     id="path14"
     d=" M 144.20 6.43 C 172.47 6.50 200.74 6.43 229.02 6.46 C 233.59 6.52 238.18 6.17 242.73 6.83 C 242.40 16.78 242.50 26.75 242.64 36.70 C 209.83 36.96 177.03 36.67 144.23 36.85 C 144.13 26.71 144.15 16.57 144.20 6.43 Z"
     opacity="1.00"
     fill="#c00000" />
  <path
     id="path16"
     d=" M 110.90 7.41 C 120.84 7.21 130.79 7.35 140.74 7.32 C 140.67 18.28 140.72 29.24 140.70 40.20 C 174.51 40.24 208.32 40.15 242.13 40.24 C 242.15 50.03 242.12 59.82 242.15 69.60 C 208.33 69.69 174.51 69.64 140.70 69.63 C 140.74 80.56 140.67 91.49 140.72 102.42 C 130.79 102.35 120.85 102.45 110.92 102.36 C 110.93 91.45 110.92 80.54 110.92 69.63 C 77.26 69.66 43.59 69.67 9.93 69.62 C 9.94 59.82 9.93 50.02 9.94 40.22 C 43.68 40.19 77.43 40.23 111.18 40.19 C 111.24 29.26 110.77 18.34 110.90 7.41 Z"
     opacity="1.00"
     fill="#ffffff" />
  <path
     id="path18"
     d=" M 247.49 6.69 C 325.05 6.78 402.61 6.66 480.17 6.75 C 480.17 38.62 480.18 70.50 480.16 102.37 C 402.60 102.44 325.04 102.35 247.48 102.42 C 247.48 70.51 247.46 38.60 247.49 6.69 M 290.51 12.60 C 284.95 15.06 280.23 19.75 278.37 25.61 C 275.94 32.57 277.92 40.71 283.01 45.98 C 290.46 53.98 303.66 55.84 312.82 49.71 C 321.11 44.54 324.84 33.14 320.83 24.17 C 318.40 18.14 312.99 13.70 306.91 11.67 C 305.77 11.99 305.16 12.72 305.06 13.86 C 306.79 16.10 309.69 17.83 309.81 20.95 C 310.60 25.40 307.07 29.48 302.96 30.61 C 297.19 32.68 289.79 28.32 289.72 21.96 C 289.62 18.55 292.50 16.36 294.51 14.03 C 295.09 11.43 291.96 11.46 290.51 12.60 M 420.49 12.58 C 414.50 15.19 409.57 20.47 407.96 26.87 C 406.10 33.77 408.33 41.50 413.44 46.47 C 420.97 54.10 433.86 55.71 442.83 49.68 C 450.43 44.83 454.25 34.80 451.54 26.16 C 449.46 19.23 443.60 13.82 436.77 11.67 C 434.11 12.28 435.44 15.06 437.05 16.04 C 440.98 19.11 440.69 25.68 436.69 28.56 C 431.48 33.48 421.66 30.86 419.90 23.82 C 418.56 19.73 422.08 16.64 424.55 13.96 C 424.96 11.28 422.06 11.95 420.49 12.58 M 341.41 58.06 C 344.13 71.23 360.18 78.89 372.37 73.70 C 380.55 70.74 385.86 62.53 386.21 53.97 C 385.91 44.60 379.17 35.79 370.00 33.58 C 369.61 34.13 368.83 35.22 368.44 35.77 C 370.37 37.52 372.62 39.26 373.31 41.92 C 374.49 45.79 372.08 49.92 368.63 51.69 C 363.02 54.86 354.42 51.77 353.45 45.04 C 352.73 41.15 355.70 38.13 358.37 35.81 C 358.06 35.20 357.44 33.98 357.13 33.37 C 346.74 36.14 338.71 47.27 341.41 58.06 M 278.14 81.04 C 281.87 94.18 298.61 100.75 310.55 94.51 C 319.11 90.51 324.20 80.23 321.90 71.02 C 320.32 63.97 314.78 58.14 308.09 55.63 C 306.28 54.43 305.30 56.19 305.02 57.71 C 306.99 59.45 309.36 61.27 309.77 64.07 C 310.64 68.25 307.76 72.50 303.83 73.85 C 298.06 76.39 290.28 72.50 289.73 66.01 C 289.42 62.21 292.57 59.74 294.71 57.10 L 294.21 55.76 L 292.95 55.30 C 282.23 58.10 274.66 70.22 278.14 81.04 M 420.30 56.17 C 410.90 60.14 404.95 71.20 408.11 81.15 C 411.67 93.20 426.17 99.82 437.82 95.64 C 446.11 92.95 452.32 84.80 452.37 76.04 C 452.70 68.12 447.80 60.68 440.96 56.98 C 439.36 56.18 437.68 55.09 435.81 55.41 C 434.00 57.70 437.01 59.19 438.17 60.81 C 441.71 64.86 439.35 71.56 434.61 73.50 C 428.78 76.66 420.27 72.86 419.64 66.03 C 419.37 62.27 422.47 59.75 424.67 57.18 C 424.65 54.51 421.69 55.35 420.30 56.17 Z"
     opacity="1.00"
     fill="#ffffff" />
  <path
     style="stroke:#242021;stroke-opacity:1"
     id="path20"
     d=" M 290.51 12.60 C 291.96 11.46 295.09 11.43 294.51 14.03 C 292.50 16.36 289.62 18.55 289.72 21.96 C 289.79 28.32 297.19 32.68 302.96 30.61 C 307.07 29.48 310.60 25.40 309.81 20.95 C 309.69 17.83 306.79 16.10 305.06 13.86 C 305.16 12.72 305.77 11.99 306.91 11.67 C 312.99 13.70 318.40 18.14 320.83 24.17 C 324.84 33.14 321.11 44.54 312.82 49.71 C 303.66 55.84 290.46 53.98 283.01 45.98 C 277.92 40.71 275.94 32.57 278.37 25.61 C 280.23 19.75 284.95 15.06 290.51 12.60 M 285.77 23.66 C 285.10 27.65 285.10 32.03 287.70 35.39 C 292.47 43.30 305.09 44.13 310.87 36.94 C 314.26 33.44 314.56 28.32 313.90 23.75 C 312.50 26.29 311.25 29.03 309.03 30.97 C 304.22 35.12 296.52 35.44 291.48 31.52 C 288.89 29.46 287.49 26.39 285.77 23.66 M 317.62 25.64 C 317.54 29.22 317.37 33.02 315.20 36.04 C 311.02 43.36 301.35 47.02 293.50 43.66 C 286.79 41.30 282.64 34.69 282.05 27.78 C 279.96 29.13 280.39 31.90 280.63 33.98 C 281.20 37.83 282.85 41.57 285.82 44.17 C 293.03 51.68 306.33 52.15 313.83 44.82 C 319.09 40.12 320.38 32.01 317.62 25.64 Z"
     opacity="1.00"
     fill="#242021" />
  <path
     style="stroke:#242021;stroke-opacity:1"
     id="path22"
     d=" M 420.49 12.58 C 422.06 11.95 424.96 11.28 424.55 13.96 C 422.08 16.64 418.56 19.73 419.90 23.82 C 421.66 30.86 431.48 33.48 436.69 28.56 C 440.69 25.68 440.98 19.11 437.05 16.04 C 435.44 15.06 434.11 12.28 436.77 11.67 C 443.60 13.82 449.46 19.23 451.54 26.16 C 454.25 34.80 450.43 44.83 442.83 49.68 C 433.86 55.71 420.97 54.10 413.44 46.47 C 408.33 41.50 406.10 33.77 407.96 26.87 C 409.57 20.47 414.50 15.19 420.49 12.58 M 415.71 23.70 C 414.91 27.93 415.22 32.62 418.10 36.04 C 422.92 42.96 433.98 43.93 439.92 37.94 C 443.86 34.44 444.89 28.79 443.64 23.83 C 442.36 26.39 441.13 29.09 438.93 30.99 C 434.34 34.95 427.10 35.42 422.11 31.94 C 419.06 30.03 417.56 26.64 415.71 23.70 M 410.69 29.56 C 409.40 36.13 413.12 42.82 418.48 46.47 C 426.87 52.52 440.20 50.97 446.05 42.12 C 449.64 37.37 449.39 31.03 447.91 25.55 C 448.04 34.14 442.24 42.84 433.49 44.39 C 422.75 47.36 410.99 37.36 412.60 26.21 C 410.54 25.59 411.11 28.39 410.69 29.56 Z"
     opacity="1.00"
     fill="#242021" />
  <path
     id="path24"
     d=" M 285.77 23.66 C 287.49 26.39 288.89 29.46 291.48 31.52 C 296.52 35.44 304.22 35.12 309.03 30.97 C 311.25 29.03 312.50 26.29 313.90 23.75 C 314.56 28.32 314.26 33.44 310.87 36.94 C 305.09 44.13 292.47 43.30 287.70 35.39 C 285.10 32.03 285.10 27.65 285.77 23.66 Z"
     opacity="1.00"
     fill="#c00000" />
  <path
     id="path26"
     d=" M 415.71 23.70 C 417.56 26.64 419.06 30.03 422.11 31.94 C 427.10 35.42 434.34 34.95 438.93 30.99 C 441.13 29.09 442.36 26.39 443.64 23.83 C 444.89 28.79 443.86 34.44 439.92 37.94 C 433.98 43.93 422.92 42.96 418.10 36.04 C 415.22 32.62 414.91 27.93 415.71 23.70 Z"
     opacity="1.00"
     fill="#c00000" />
  <path
     id="path28"
     d=" M 317.62 25.64 C 320.38 32.01 319.09 40.12 313.83 44.82 C 306.33 52.15 293.03 51.68 285.82 44.17 C 282.85 41.57 281.20 37.83 280.63 33.98 C 280.39 31.90 279.96 29.13 282.05 27.78 C 282.64 34.69 286.79 41.30 293.50 43.66 C 301.35 47.02 311.02 43.36 315.20 36.04 C 317.37 33.02 317.54 29.22 317.62 25.64 Z"
     opacity="1.00"
     fill="#c00000" />
  <path
     id="path30"
     d=" M 410.69 29.56 C 411.11 28.39 410.54 25.59 412.60 26.21 C 410.99 37.36 422.75 47.36 433.49 44.39 C 442.24 42.84 448.04 34.14 447.91 25.55 C 449.39 31.03 449.64 37.37 446.05 42.12 C 440.20 50.97 426.87 52.52 418.48 46.47 C 413.12 42.82 409.40 36.13 410.69 29.56 Z"
     opacity="1.00"
     fill="#c00000" />
  <path
     style="stroke:#242021;stroke-opacity:1"
     id="path32"
     d=" M 341.41 58.06 C 338.71 47.27 346.74 36.14 357.13 33.37 C 357.44 33.98 358.06 35.20 358.37 35.81 C 355.70 38.13 352.73 41.15 353.45 45.04 C 354.42 51.77 363.02 54.86 368.63 51.69 C 372.08 49.92 374.49 45.79 373.31 41.92 C 372.62 39.26 370.37 37.52 368.44 35.77 C 368.83 35.22 369.61 34.13 370.00 33.58 C 379.17 35.79 385.91 44.60 386.21 53.97 C 385.86 62.53 380.55 70.74 372.37 73.70 C 360.18 78.89 344.13 71.23 341.41 58.06 M 349.59 45.48 C 348.72 49.79 348.83 54.65 351.86 58.14 C 357.05 65.46 369.21 65.75 374.68 58.62 C 378.00 55.04 378.28 49.93 377.87 45.31 C 375.88 47.87 374.88 51.20 372.17 53.16 C 367.65 56.90 360.84 57.16 355.95 53.97 C 352.70 52.18 351.15 48.65 349.59 45.48 M 344.79 58.54 C 347.55 67.69 357.73 73.33 367.02 71.79 C 377.92 70.71 386.61 57.91 381.13 47.71 C 380.95 52.34 380.03 57.22 376.79 60.75 C 370.88 67.81 359.25 68.78 352.27 62.79 C 347.68 59.13 345.84 53.23 345.54 47.57 C 344.36 51.09 343.56 54.91 344.79 58.54 Z"
     opacity="1.00"
     fill="#242021" />
  <path
     id="path34"
     d=" M 349.59 45.48 C 351.15 48.65 352.70 52.18 355.95 53.97 C 360.84 57.16 367.65 56.90 372.17 53.16 C 374.88 51.20 375.88 47.87 377.87 45.31 C 378.28 49.93 378.00 55.04 374.68 58.62 C 369.21 65.75 357.05 65.46 351.86 58.14 C 348.83 54.65 348.72 49.79 349.59 45.48 Z"
     opacity="1.00"
     fill="#c00000" />
  <path
     id="path36"
     d=" M 344.79 58.54 C 343.56 54.91 344.36 51.09 345.54 47.57 C 345.84 53.23 347.68 59.13 352.27 62.79 C 359.25 68.78 370.88 67.81 376.79 60.75 C 380.03 57.22 380.95 52.34 381.13 47.71 C 386.61 57.91 377.92 70.71 367.02 71.79 C 357.73 73.33 347.55 67.69 344.79 58.54 Z"
     opacity="1.00"
     fill="#c00000" />
  <path
     style="stroke:#242021;stroke-opacity:1"
     id="path38"
     d=" M 278.14 81.04 C 274.66 70.22 282.23 58.10 292.95 55.30 L 294.21 55.76 L 294.71 57.10 C 292.57 59.74 289.42 62.21 289.73 66.01 C 290.28 72.50 298.06 76.39 303.83 73.85 C 307.76 72.50 310.64 68.25 309.77 64.07 C 309.36 61.27 306.99 59.45 305.02 57.71 C 305.30 56.19 306.28 54.43 308.09 55.63 C 314.78 58.14 320.32 63.97 321.90 71.02 C 324.20 80.23 319.11 90.51 310.55 94.51 C 298.61 100.75 281.87 94.18 278.14 81.04 M 285.55 67.25 C 283.68 75.09 288.87 83.81 296.92 85.24 C 306.75 87.73 316.80 77.73 314.12 67.87 C 312.09 69.68 311.01 72.23 309.16 74.18 C 304.39 78.68 296.23 78.94 291.22 74.69 C 288.63 72.79 287.79 69.48 285.55 67.25 M 280.52 76.78 C 281.29 84.81 287.86 91.53 295.66 93.15 C 304.85 95.63 315.79 90.20 318.38 80.83 C 319.58 76.89 319.14 72.68 317.52 68.94 C 318.20 76.15 314.06 83.62 307.45 86.67 C 302.33 89.21 295.95 88.98 291.06 86.01 C 285.07 82.80 281.62 75.67 282.55 68.97 C 281.48 71.45 279.94 73.97 280.52 76.78 Z"
     opacity="1.00"
     fill="#242021" />
  <path
     style="stroke:#242021;stroke-opacity:1"
     id="path40"
     d=" M 420.30 56.17 C 421.69 55.35 424.65 54.51 424.67 57.18 C 422.47 59.75 419.37 62.27 419.64 66.03 C 420.27 72.86 428.78 76.66 434.61 73.50 C 439.35 71.56 441.71 64.86 438.17 60.81 C 437.01 59.19 434.00 57.70 435.81 55.41 C 437.68 55.09 439.36 56.18 440.96 56.98 C 447.80 60.68 452.70 68.12 452.37 76.04 C 452.32 84.80 446.11 92.95 437.82 95.64 C 426.17 99.82 411.67 93.20 408.11 81.15 C 404.95 71.20 410.90 60.14 420.30 56.17 M 415.59 67.82 C 414.65 72.65 415.85 78.06 419.61 81.42 C 425.25 87.10 435.43 86.85 440.68 80.76 C 443.96 77.64 444.39 72.89 444.13 68.62 C 442.59 69.94 441.33 71.51 440.10 73.10 C 436.13 78.02 428.49 79.08 423.09 76.03 C 419.72 74.19 418.03 70.60 415.59 67.82 M 447.39 68.85 C 448.48 76.79 443.11 84.95 435.54 87.43 C 429.41 89.71 422.17 87.97 417.51 83.47 C 414.07 80.24 412.72 75.57 412.07 71.04 L 411.00 72.03 C 408.63 80.65 415.12 89.88 423.35 92.46 C 431.43 95.60 441.54 92.68 446.27 85.30 C 449.54 80.52 449.86 74.04 447.39 68.85 Z"
     opacity="1.00"
     fill="#242021" />
  <path
     id="path42"
     d=" M 285.55 67.25 C 287.79 69.48 288.63 72.79 291.22 74.69 C 296.23 78.94 304.39 78.68 309.16 74.18 C 311.01 72.23 312.09 69.68 314.12 67.87 C 316.80 77.73 306.75 87.73 296.92 85.24 C 288.87 83.81 283.68 75.09 285.55 67.25 Z"
     opacity="1.00"
     fill="#c00000" />
  <path
     id="path44"
     d=" M 280.52 76.78 C 279.94 73.97 281.48 71.45 282.55 68.97 C 281.62 75.67 285.07 82.80 291.06 86.01 C 295.95 88.98 302.33 89.21 307.45 86.67 C 314.06 83.62 318.20 76.15 317.52 68.94 C 319.14 72.68 319.58 76.89 318.38 80.83 C 315.79 90.20 304.85 95.63 295.66 93.15 C 287.86 91.53 281.29 84.81 280.52 76.78 Z"
     opacity="1.00"
     fill="#c00000" />
  <path
     id="path46"
     d=" M 415.59 67.82 C 418.03 70.60 419.72 74.19 423.09 76.03 C 428.49 79.08 436.13 78.02 440.10 73.10 C 441.33 71.51 442.59 69.94 444.13 68.62 C 444.39 72.89 443.96 77.64 440.68 80.76 C 435.43 86.85 425.25 87.10 419.61 81.42 C 415.85 78.06 414.65 72.65 415.59 67.82 Z"
     opacity="1.00"
     fill="#c00000" />
  <path
     id="path48"
     d=" M 447.39 68.85 C 449.86 74.04 449.54 80.52 446.27 85.30 C 441.54 92.68 431.43 95.60 423.35 92.46 C 415.12 89.88 408.63 80.65 411.00 72.03 L 412.07 71.04 C 412.72 75.57 414.07 80.24 417.51 83.47 C 422.17 87.97 429.41 89.71 435.54 87.43 C 443.11 84.95 448.48 76.79 447.39 68.85 Z"
     opacity="1.00"
     fill="#c00000" />
  <path
     id="path50"
     d=" M 9.43 73.12 C 42.18 72.87 74.94 72.86 107.69 73.12 C 107.40 82.87 107.96 92.65 107.47 102.38 C 106.31 102.53 105.14 102.60 103.97 102.61 C 72.44 102.55 40.91 102.62 9.38 102.57 C 9.42 92.75 9.41 82.93 9.43 73.12 Z"
     opacity="1.00"
     fill="#c00000" />
  <path
     id="path52"
     d=" M 144.15 73.12 C 173.75 72.75 203.37 73.09 232.97 72.95 C 236.16 72.91 239.34 72.99 242.52 73.12 C 242.32 82.93 242.42 92.74 242.48 102.55 C 209.77 102.68 177.06 102.42 144.35 102.68 C 144.01 92.83 144.35 82.97 144.15 73.12 Z"
     opacity="1.00"
     fill="#c00000" />
  <path
     id="path54"
     d=" M 247.31 107.33 C 280.05 107.46 312.80 107.39 345.54 107.38 C 345.62 117.18 345.37 126.98 345.71 136.78 C 312.89 137.01 280.05 136.94 247.23 136.82 C 247.28 126.99 247.20 117.16 247.31 107.33 Z"
     opacity="1.00"
     fill="#c00000" />
  <path
     id="path56"
     d=" M 382.24 107.45 C 414.86 107.44 447.48 107.51 480.10 107.41 C 480.14 117.22 480.08 127.02 480.17 136.82 C 447.51 136.94 414.86 136.87 382.21 136.84 C 382.24 127.04 382.15 117.24 382.24 107.45 Z"
     opacity="1.00"
     fill="#c00000" />
  <path
     id="path58"
     d=" M 9.60 107.59 C 87.16 107.62 164.73 107.59 242.29 107.61 C 242.27 139.20 242.27 170.80 242.29 202.39 C 164.73 202.41 87.16 202.38 9.59 202.40 C 9.61 170.80 9.60 139.20 9.60 107.59 M 55.53 111.59 C 49.71 114.14 44.85 119.16 43.14 125.35 C 41.07 132.15 43.10 139.89 48.01 144.98 C 55.46 152.99 68.67 154.83 77.83 148.70 C 85.86 143.66 89.65 132.78 86.13 123.92 C 83.82 117.54 78.23 112.73 71.86 110.66 C 70.75 111.02 70.15 111.75 70.07 112.87 C 71.80 115.10 74.66 116.82 74.82 119.92 C 75.61 124.42 72.02 128.54 67.85 129.64 C 62.12 131.62 54.85 127.32 54.71 121.02 C 54.58 117.60 57.46 115.40 59.48 113.07 C 60.18 110.56 56.98 110.38 55.53 111.59 M 185.53 111.56 C 176.19 115.36 170.10 126.21 173.00 136.11 C 176.23 148.85 191.91 155.79 203.79 150.75 C 213.19 147.33 219.20 136.61 216.95 126.81 C 215.40 119.14 209.14 112.98 201.78 110.68 C 200.51 110.96 199.83 112.08 200.40 113.29 C 202.12 115.31 204.69 117.08 204.79 120.01 C 205.54 124.46 201.98 128.49 197.89 129.63 C 192.09 131.70 184.72 127.24 184.64 120.90 C 184.63 117.52 187.52 115.37 189.47 113.01 C 190.23 110.47 186.88 110.84 185.53 111.56 M 106.40 157.03 C 109.07 169.98 124.66 177.69 136.77 172.92 C 145.25 170.14 150.87 161.75 151.21 152.97 C 150.95 143.41 144.00 134.96 134.89 132.34 C 134.56 132.98 133.90 134.25 133.57 134.89 C 137.19 137.43 140.24 142.26 137.69 146.61 C 134.15 153.97 121.89 153.52 118.94 145.89 C 116.98 141.56 120.10 137.38 123.37 134.81 C 123.06 134.20 122.43 132.98 122.12 132.37 C 111.75 135.15 103.71 146.26 106.40 157.03 M 55.21 155.23 C 49.55 157.87 44.79 162.80 43.12 168.90 C 41.06 175.79 43.12 183.68 48.28 188.68 C 55.56 196.48 68.48 198.22 77.47 192.42 C 85.21 187.82 89.26 177.76 86.66 169.10 C 85.02 163.08 80.44 158.09 74.89 155.39 C 73.53 154.85 71.23 153.29 70.31 155.30 C 69.80 157.37 72.25 158.31 73.19 159.81 C 76.79 163.83 74.35 170.64 69.58 172.52 C 63.79 175.66 55.32 171.83 54.73 165.04 C 54.40 161.26 57.50 158.77 59.68 156.18 C 59.71 153.45 56.62 154.38 55.21 155.23 M 185.26 155.18 C 177.64 158.55 171.89 166.48 172.34 175.00 C 172.41 186.67 183.69 196.07 195.02 195.81 C 205.02 196.33 214.84 189.01 216.86 179.14 C 219.71 168.18 211.57 156.05 200.53 154.14 C 199.19 157.53 203.25 158.80 204.28 161.51 C 206.23 166.01 203.30 171.35 198.81 172.85 C 193.05 175.37 185.26 171.54 184.65 165.06 C 184.34 161.30 187.44 158.78 189.64 156.22 C 189.82 153.50 186.61 154.36 185.26 155.18 Z"
     opacity="1.00"
     fill="#ffffff" />
  <path
     id="path60"
     d=" M 348.82 107.76 C 358.78 107.72 368.73 107.77 378.69 107.73 C 378.72 118.61 378.70 129.48 378.70 140.36 C 412.40 140.33 446.10 140.35 479.80 140.35 C 479.78 150.15 479.74 159.95 479.82 169.75 C 446.11 169.86 412.40 169.76 378.69 169.80 C 378.73 180.72 378.66 191.63 378.73 202.55 C 368.75 202.51 358.78 202.57 348.80 202.52 C 348.81 191.61 348.82 180.69 348.81 169.78 C 315.13 169.83 281.46 169.77 247.79 169.81 C 247.75 159.98 247.80 150.16 247.77 140.34 C 281.46 140.35 315.14 140.33 348.83 140.36 C 348.79 129.49 348.81 118.63 348.82 107.76 Z"
     opacity="1.00"
     fill="#ffffff" />
  <path
     style="stroke:#242021;stroke-opacity:1"
     id="path62"
     d=" M 55.53 111.59 C 56.98 110.38 60.18 110.56 59.48 113.07 C 57.46 115.40 54.58 117.60 54.71 121.02 C 54.85 127.32 62.12 131.62 67.85 129.64 C 72.02 128.54 75.61 124.42 74.82 119.92 C 74.66 116.82 71.80 115.10 70.07 112.87 C 70.15 111.75 70.75 111.02 71.86 110.66 C 78.23 112.73 83.82 117.54 86.13 123.92 C 89.65 132.78 85.86 143.66 77.83 148.70 C 68.67 154.83 55.46 152.99 48.01 144.98 C 43.10 139.89 41.07 132.15 43.14 125.35 C 44.85 119.16 49.71 114.14 55.53 111.59 M 78.67 122.84 C 76.43 130.28 68.15 135.29 60.60 132.64 C 55.66 131.50 53.39 126.76 50.73 123.00 C 50.06 126.89 50.20 131.16 52.70 134.42 C 57.39 142.07 69.47 143.12 75.44 136.43 C 79.05 132.94 79.84 127.55 78.67 122.84 M 82.38 123.78 C 84.58 135.15 72.96 146.08 61.78 143.59 C 53.67 142.32 47.57 135.00 47.13 126.90 C 44.75 127.92 45.50 130.96 45.62 132.98 C 46.21 137.32 48.39 141.36 51.83 144.10 C 59.52 151.08 72.89 150.74 79.82 142.82 C 84.56 137.79 85.07 129.94 82.38 123.78 Z"
     opacity="1.00"
     fill="#242021" />
  <path
     style="stroke:#242021;stroke-opacity:1"
     id="path64"
     d=" M 185.53 111.56 C 186.88 110.84 190.23 110.47 189.47 113.01 C 187.52 115.37 184.63 117.52 184.64 120.90 C 184.72 127.24 192.09 131.70 197.89 129.63 C 201.98 128.49 205.54 124.46 204.79 120.01 C 204.69 117.08 202.12 115.31 200.40 113.29 C 199.83 112.08 200.51 110.96 201.78 110.68 C 209.14 112.98 215.40 119.14 216.95 126.81 C 219.20 136.61 213.19 147.33 203.79 150.75 C 191.91 155.79 176.23 148.85 173.00 136.11 C 170.10 126.21 176.19 115.36 185.53 111.56 M 180.73 122.67 C 179.80 127.12 180.36 132.06 183.50 135.56 C 188.64 142.27 199.77 142.72 205.43 136.43 C 209.08 132.93 209.61 127.57 208.88 122.82 C 207.40 125.32 206.11 128.01 203.94 129.99 C 199.18 134.13 191.51 134.42 186.52 130.52 C 183.82 128.57 182.42 125.44 180.73 122.67 M 181.83 144.19 C 189.72 151.25 203.53 150.76 210.20 142.24 C 214.43 137.46 214.78 130.47 212.75 124.65 C 213.10 132.66 207.93 140.84 200.02 142.98 C 192.75 145.59 184.14 142.32 180.08 135.85 C 177.89 132.51 177.31 128.47 177.09 124.57 C 173.52 131.23 176.16 139.60 181.83 144.19 Z"
     opacity="1.00"
     fill="#242021" />
  <path
     id="path66"
     d=" M 78.67 122.84 C 79.84 127.55 79.05 132.94 75.44 136.43 C 69.47 143.12 57.39 142.07 52.70 134.42 C 50.20 131.16 50.06 126.89 50.73 123.00 C 53.39 126.76 55.66 131.50 60.60 132.64 C 68.15 135.29 76.43 130.28 78.67 122.84 Z"
     opacity="1.00"
     fill="#c00000" />
  <path
     id="path68"
     d=" M 180.73 122.67 C 182.42 125.44 183.82 128.57 186.52 130.52 C 191.51 134.42 199.18 134.13 203.94 129.99 C 206.11 128.01 207.40 125.32 208.88 122.82 C 209.61 127.57 209.08 132.93 205.43 136.43 C 199.77 142.72 188.64 142.27 183.50 135.56 C 180.36 132.06 179.80 127.12 180.73 122.67 Z"
     opacity="1.00"
     fill="#c00000" />
  <path
     id="path70"
     d=" M 82.38 123.78 C 85.07 129.94 84.56 137.79 79.82 142.82 C 72.89 150.74 59.52 151.08 51.83 144.10 C 48.39 141.36 46.21 137.32 45.62 132.98 C 45.50 130.96 44.75 127.92 47.13 126.90 C 47.57 135.00 53.67 142.32 61.78 143.59 C 72.96 146.08 84.58 135.15 82.38 123.78 Z"
     opacity="1.00"
     fill="#c00000" />
  <path
     id="path72"
     d=" M 181.83 144.19 C 176.16 139.60 173.52 131.23 177.09 124.57 C 177.31 128.47 177.89 132.51 180.08 135.85 C 184.14 142.32 192.75 145.59 200.02 142.98 C 207.93 140.84 213.10 132.66 212.75 124.65 C 214.78 130.47 214.43 137.46 210.20 142.24 C 203.53 150.76 189.72 151.25 181.83 144.19 Z"
     opacity="1.00"
     fill="#c00000" />
  <path
     style="stroke:#242021;stroke-opacity:1"
     id="path74"
     d=" M 106.40 157.03 C 103.71 146.26 111.75 135.15 122.12 132.37 C 122.43 132.98 123.06 134.20 123.37 134.81 C 120.10 137.38 116.98 141.56 118.94 145.89 C 121.89 153.52 134.15 153.97 137.69 146.61 C 140.24 142.26 137.19 137.43 133.57 134.89 C 133.90 134.25 134.56 132.98 134.89 132.34 C 144.00 134.96 150.95 143.41 151.21 152.97 C 150.87 161.75 145.25 170.14 136.77 172.92 C 124.66 177.69 109.07 169.98 106.40 157.03 M 114.60 144.47 C 114.10 147.88 113.59 151.60 115.36 154.75 C 117.95 160.18 124.06 163.50 130.04 162.74 C 138.70 162.24 145.10 152.77 142.39 144.49 C 140.91 147.47 139.47 150.71 136.58 152.61 C 131.89 156.09 125.12 156.01 120.41 152.62 C 117.48 150.75 116.08 147.45 114.60 144.47 M 110.01 158.25 C 113.21 167.36 123.71 172.59 133.01 170.64 C 143.49 168.98 151.44 156.51 146.10 146.66 C 146.03 151.79 144.71 157.22 140.79 160.81 C 134.15 167.49 122.01 167.40 115.71 160.29 C 112.04 156.71 111.10 151.51 110.34 146.67 C 109.30 150.42 108.55 154.49 110.01 158.25 Z"
     opacity="1.00"
     fill="#242021" />
  <path
     id="path76"
     d=" M 114.60 144.47 C 116.08 147.45 117.48 150.75 120.41 152.62 C 125.12 156.01 131.89 156.09 136.58 152.61 C 139.47 150.71 140.91 147.47 142.39 144.49 C 145.10 152.77 138.70 162.24 130.04 162.74 C 124.06 163.50 117.95 160.18 115.36 154.75 C 113.59 151.60 114.10 147.88 114.60 144.47 Z"
     opacity="1.00"
     fill="#c00000" />
  <path
     id="path78"
     d=" M 110.01 158.25 C 108.55 154.49 109.30 150.42 110.34 146.67 C 111.10 151.51 112.04 156.71 115.71 160.29 C 122.01 167.40 134.15 167.49 140.79 160.81 C 144.71 157.22 146.03 151.79 146.10 146.66 C 151.44 156.51 143.49 168.98 133.01 170.64 C 123.71 172.59 113.21 167.36 110.01 158.25 Z"
     opacity="1.00"
     fill="#c00000" />
  <path
     style="stroke:#242021;stroke-opacity:1"
     id="path80"
     d=" M 55.21 155.23 C 56.62 154.38 59.71 153.45 59.68 156.18 C 57.50 158.77 54.40 161.26 54.73 165.04 C 55.32 171.83 63.79 175.66 69.58 172.52 C 74.35 170.64 76.79 163.83 73.19 159.81 C 72.25 158.31 69.80 157.37 70.31 155.30 C 71.23 153.29 73.53 154.85 74.89 155.39 C 80.44 158.09 85.02 163.08 86.66 169.10 C 89.26 177.76 85.21 187.82 77.47 192.42 C 68.48 198.22 55.56 196.48 48.28 188.68 C 43.12 183.68 41.06 175.79 43.12 168.90 C 44.79 162.80 49.55 157.87 55.21 155.23 M 50.55 166.26 C 50.15 170.11 50.08 174.32 52.46 177.61 C 56.38 184.33 65.92 186.64 72.47 182.42 C 77.43 179.45 81.38 172.39 78.40 166.86 C 77.20 168.82 76.22 170.94 74.67 172.67 C 70.04 177.59 61.43 178.17 56.30 173.69 C 53.68 171.79 52.82 168.47 50.55 166.26 M 45.53 175.86 C 46.29 183.60 52.47 190.12 59.92 191.96 C 67.91 194.36 77.34 190.98 81.66 183.78 C 84.54 179.05 84.81 172.98 82.53 167.95 C 83.54 177.51 75.70 187.01 65.99 187.38 C 55.59 188.39 45.98 178.52 47.49 168.11 C 46.39 170.55 44.93 173.07 45.53 175.86 Z"
     opacity="1.00"
     fill="#242021" />
  <path
     style="stroke:#242021;stroke-opacity:1"
     id="path82"
     d=" M 185.26 155.18 C 186.61 154.36 189.82 153.50 189.64 156.22 C 187.44 158.78 184.34 161.30 184.65 165.06 C 185.26 171.54 193.05 175.37 198.81 172.85 C 203.30 171.35 206.23 166.01 204.28 161.51 C 203.25 158.80 199.19 157.53 200.53 154.14 C 211.57 156.05 219.71 168.18 216.86 179.14 C 214.84 189.01 205.02 196.33 195.02 195.81 C 183.69 196.07 172.41 186.67 172.34 175.00 C 171.89 166.48 177.64 158.55 185.26 155.18 M 180.55 165.97 C 179.79 171.05 180.50 176.83 184.59 180.40 C 190.23 186.15 200.47 185.81 205.73 179.72 C 209.02 176.60 209.37 171.82 209.09 167.56 C 207.62 168.95 206.34 170.52 205.09 172.10 C 200.66 177.57 191.61 178.34 186.28 173.74 C 183.74 171.68 182.25 168.70 180.55 165.97 M 212.46 168.01 C 213.28 175.73 208.32 183.63 201.01 186.26 C 194.57 188.87 186.72 186.97 182.00 181.95 C 178.91 178.73 177.70 174.33 177.06 170.04 L 176.01 171.04 C 173.54 179.96 180.52 189.41 189.11 191.71 C 197.03 194.40 206.64 191.46 211.23 184.36 C 214.50 179.61 214.88 173.20 212.46 168.01 Z"
     opacity="1.00"
     fill="#242021" />
  <path
     id="path84"
     d=" M 180.55 165.97 C 182.25 168.70 183.74 171.68 186.28 173.74 C 191.61 178.34 200.66 177.57 205.09 172.10 C 206.34 170.52 207.62 168.95 209.09 167.56 C 209.37 171.82 209.02 176.60 205.73 179.72 C 200.47 185.81 190.23 186.15 184.59 180.40 C 180.50 176.83 179.79 171.05 180.55 165.97 Z"
     opacity="1.00"
     fill="#c00000" />
  <path
     id="path86"
     d=" M 50.55 166.26 C 52.82 168.47 53.68 171.79 56.30 173.69 C 61.43 178.17 70.04 177.59 74.67 172.67 C 76.22 170.94 77.20 168.82 78.40 166.86 C 81.38 172.39 77.43 179.45 72.47 182.42 C 65.92 186.64 56.38 184.33 52.46 177.61 C 50.08 174.32 50.15 170.11 50.55 166.26 Z"
     opacity="1.00"
     fill="#c00000" />
  <path
     id="path88"
     d=" M 45.53 175.86 C 44.93 173.07 46.39 170.55 47.49 168.11 C 45.98 178.52 55.59 188.39 65.99 187.38 C 75.70 187.01 83.54 177.51 82.53 167.95 C 84.81 172.98 84.54 179.05 81.66 183.78 C 77.34 190.98 67.91 194.36 59.92 191.96 C 52.47 190.12 46.29 183.60 45.53 175.86 Z"
     opacity="1.00"
     fill="#c00000" />
  <path
     id="path90"
     d=" M 212.46 168.01 C 214.88 173.20 214.50 179.61 211.23 184.36 C 206.64 191.46 197.03 194.40 189.11 191.71 C 180.52 189.41 173.54 179.96 176.01 171.04 L 177.06 170.04 C 177.70 174.33 178.91 178.73 182.00 181.95 C 186.72 186.97 194.57 188.87 201.01 186.26 C 208.32 183.63 213.28 175.73 212.46 168.01 Z"
     opacity="1.00"
     fill="#c00000" />
  <path
     id="path92"
     d=" M 247.24 173.23 C 280.00 173.13 312.77 173.28 345.53 173.16 C 345.70 182.99 345.55 192.83 345.61 202.66 C 312.83 202.67 280.04 202.57 247.25 202.71 C 247.18 192.88 247.19 183.06 247.24 173.23 Z"
     opacity="1.00"
     fill="#c00000" />
  <path
     id="path94"
     d=" M 382.23 173.29 C 414.86 173.14 447.50 173.26 480.14 173.23 C 480.11 183.03 480.12 192.83 480.13 202.63 C 447.49 202.50 414.85 202.68 382.20 202.55 C 382.18 192.80 382.14 183.04 382.23 173.29 Z"
     opacity="1.00"
     fill="#c00000" />
  <path
     id="path96"
     d=" M 247.30 207.36 C 324.88 207.43 402.47 207.42 480.05 207.38 C 480.21 272.58 480.06 337.79 480.13 402.99 C 480.39 409.67 480.77 416.36 480.19 423.04 C 479.61 431.43 479.51 440.48 474.77 447.79 C 468.44 457.93 458.63 465.01 449.85 472.85 C 389.70 524.68 329.52 576.46 269.41 628.32 C 262.03 634.47 255.08 641.15 247.36 646.87 C 247.13 590.08 247.25 533.29 247.30 476.50 C 252.67 476.00 258.08 474.78 262.80 472.07 C 265.91 470.27 269.52 469.76 273.02 469.25 C 284.28 467.75 295.85 467.55 306.94 470.27 C 321.46 473.70 335.96 477.84 350.95 478.51 C 358.29 479.21 365.68 479.19 373.03 478.59 C 377.52 478.27 382.70 478.57 386.22 475.22 C 388.24 473.38 388.02 470.45 388.11 467.97 C 388.06 460.60 388.09 453.22 388.06 445.85 C 395.95 445.49 403.88 446.24 411.76 445.59 C 418.67 442.86 425.26 439.34 432.13 436.48 C 427.74 433.49 422.78 431.54 418.14 429.00 C 415.21 427.62 412.37 425.51 408.98 425.71 C 402.04 425.67 395.11 425.82 388.18 425.70 C 387.92 408.00 388.18 390.30 388.05 372.60 C 394.35 372.37 400.65 372.47 406.95 372.87 C 409.50 373.08 412.09 372.72 414.36 371.48 C 419.83 368.77 425.52 366.53 430.96 363.75 C 430.92 363.42 430.83 362.74 430.79 362.41 C 426.71 359.91 422.24 358.15 418.04 355.86 C 415.16 354.49 412.38 352.40 409.04 352.61 C 402.06 352.62 395.07 352.60 388.10 352.67 C 387.96 347.11 388.29 341.54 387.97 335.99 C 388.04 334.26 386.66 332.55 384.89 332.53 C 381.45 332.31 378.00 332.48 374.56 332.39 C 374.57 330.10 374.59 327.81 374.62 325.52 C 371.25 325.54 367.89 325.49 364.53 325.31 C 364.39 323.31 364.63 321.16 363.56 319.37 C 360.98 318.70 358.29 319.01 355.66 319.00 C 355.62 316.81 355.59 314.63 355.56 312.44 C 354.88 311.71 354.20 310.99 353.53 310.26 C 351.75 310.22 349.97 310.19 348.19 310.16 C 348.18 307.06 348.17 303.97 348.21 300.88 C 343.45 304.09 337.50 302.85 332.35 301.41 C 323.73 298.99 316.89 292.92 309.09 288.83 C 294.21 280.91 275.46 279.72 260.12 287.06 C 255.39 289.10 251.46 292.47 247.32 295.45 C 247.20 266.09 247.21 236.72 247.30 207.36 Z"
     opacity="1.00"
     fill="#c00000" />
  <path
     id="path98"
     d=" M 9.60 207.60 C 87.16 207.61 164.73 207.59 242.29 207.61 C 242.29 236.69 242.26 265.77 242.30 294.84 C 226.69 280.19 201.86 278.85 183.26 288.32 C 174.62 292.48 167.32 299.40 157.85 301.77 C 152.88 303.00 146.80 304.54 142.74 300.34 C 142.48 303.57 142.26 306.81 142.29 310.06 C 139.37 310.06 136.46 310.06 133.55 310.06 C 133.58 312.96 133.58 315.87 133.60 318.77 C 130.93 318.77 128.26 318.76 125.59 318.75 C 125.58 320.93 125.57 323.10 125.56 325.28 C 122.67 325.27 119.77 325.27 116.87 325.28 C 116.37 327.59 115.79 329.89 115.54 332.25 C 112.22 332.21 108.89 332.25 105.58 332.54 C 104.92 339.14 105.34 345.77 105.23 352.39 C 99.90 352.38 94.58 352.44 89.25 352.35 C 87.83 348.51 84.23 345.26 79.92 345.60 C 75.59 345.59 72.25 349.07 71.03 353.00 C 66.59 353.65 62.59 357.25 62.59 361.94 C 62.22 366.89 66.45 370.76 71.03 371.63 C 71.55 375.53 74.30 379.10 78.27 379.89 C 83.46 381.23 88.50 377.17 89.57 372.17 C 94.82 372.23 100.07 372.21 105.32 372.18 C 105.31 389.96 105.30 407.74 105.32 425.51 C 99.97 425.48 94.61 425.55 89.26 425.46 C 87.80 421.64 84.25 418.40 79.96 418.67 C 75.64 418.78 72.21 422.11 71.07 426.13 C 66.24 426.69 62.08 431.05 62.61 436.04 C 62.78 440.62 66.77 443.89 70.99 444.81 C 71.58 450.25 77.23 454.62 82.63 452.91 C 86.34 452.06 88.60 448.64 89.56 445.18 C 94.81 445.39 100.07 445.31 105.32 445.32 C 105.32 455.17 105.26 465.02 105.33 474.87 C 105.38 479.69 110.88 481.59 114.91 481.88 C 128.29 483.00 141.77 481.28 154.84 478.44 C 166.97 475.81 178.80 471.90 191.01 469.60 C 199.23 467.92 207.69 468.26 216.00 468.93 C 220.92 469.63 226.22 469.79 230.48 472.65 C 234.04 474.91 238.19 475.88 242.29 476.64 C 242.27 533.40 242.30 590.16 242.27 646.92 C 174.90 588.21 107.44 529.62 40.08 470.90 C 30.70 462.38 19.79 454.84 13.88 443.28 C 9.85 435.51 10.35 426.46 9.64 417.98 C 9.55 347.85 9.63 277.73 9.60 207.60 Z"
     opacity="1.00"
     fill="#ffffff" />
  <path
     id="path100"
     d=" M 247.51 301.37 C 254.41 293.23 264.38 287.81 274.97 286.54 C 284.14 285.60 293.64 286.41 302.17 290.08 C 312.47 294.21 320.65 302.57 331.55 305.37 C 335.73 306.67 340.14 306.87 344.49 306.67 C 344.38 350.41 344.55 394.16 344.41 437.91 C 341.25 438.80 337.96 439.72 334.66 439.12 C 325.11 437.54 316.81 432.17 307.76 429.07 C 294.70 424.10 280.05 424.31 266.84 428.56 C 259.36 431.00 252.56 435.33 247.14 441.01 C 247.41 394.47 247.20 347.92 247.51 301.37 M 272.60 310.71 C 272.62 315.96 272.66 321.20 272.57 326.45 C 274.01 328.50 275.49 330.52 276.94 332.57 C 279.24 333.25 281.90 333.69 283.92 332.04 C 286.27 329.56 287.61 326.33 289.10 323.30 C 287.05 325.68 283.31 328.50 280.51 325.49 C 279.95 320.72 280.22 315.89 279.85 311.10 C 281.92 311.57 283.95 312.27 286.07 312.56 C 288.20 312.69 289.77 311.00 291.38 309.88 C 288.02 308.70 285.18 306.57 282.75 304.01 C 279.31 306.15 275.95 308.43 272.60 310.71 M 298.50 316.77 C 298.48 320.56 298.49 324.35 298.48 328.14 C 297.34 328.85 296.22 329.57 295.09 330.29 C 295.14 331.54 295.20 332.79 295.27 334.05 C 296.54 333.21 297.79 332.34 299.06 331.49 C 300.65 333.73 301.58 337.75 305.01 337.51 C 308.35 336.28 311.18 333.93 314.07 331.89 C 313.32 328.18 309.95 332.52 307.93 332.66 C 303.65 332.53 305.76 327.32 305.28 324.57 C 309.14 323.36 313.01 322.16 316.92 321.08 C 315.22 317.25 315.21 310.54 309.98 310.00 C 305.45 310.70 302.05 314.16 298.50 316.77 M 325.37 333.23 C 325.41 334.07 325.48 335.76 325.51 336.60 C 329.04 337.54 332.72 337.47 336.33 337.81 C 336.33 336.92 336.32 335.15 336.32 334.26 C 332.68 333.76 329.03 333.43 325.37 333.23 M 325.48 339.26 C 325.53 340.08 325.62 341.73 325.67 342.55 C 329.11 343.76 332.87 343.39 336.46 343.82 C 336.39 342.97 336.26 341.27 336.20 340.42 C 332.68 339.61 329.06 339.52 325.48 339.26 M 276.92 352.87 C 274.80 351.05 273.39 346.18 269.89 347.61 C 267.65 349.87 265.81 352.48 263.86 354.99 C 262.53 353.43 261.05 352.01 259.06 351.37 C 256.92 354.52 254.12 357.30 252.66 360.88 C 254.30 360.30 255.93 359.69 257.59 359.14 C 257.74 364.71 257.64 370.29 257.65 375.86 C 256.61 376.77 255.58 377.69 254.55 378.62 C 256.49 380.09 258.41 381.58 260.29 383.12 C 262.64 381.17 264.85 379.08 267.04 376.96 C 266.11 375.93 265.08 374.97 264.31 373.82 C 264.13 369.27 264.10 364.70 264.33 360.16 C 264.50 358.28 266.94 358.31 268.35 357.96 C 269.46 363.51 269.75 369.46 268.09 374.93 C 269.76 376.27 271.43 377.62 273.09 378.99 C 274.61 377.39 276.12 375.77 277.62 374.16 C 274.97 370.59 275.87 366.10 275.73 361.98 C 275.85 359.69 275.19 356.90 277.25 355.24 C 277.92 354.15 280.12 353.84 280.44 355.39 C 281.50 362.05 279.75 368.98 281.55 375.57 C 282.33 377.89 285.21 377.66 287.14 377.22 C 289.35 375.03 290.65 372.13 292.39 369.59 C 291.54 369.48 289.86 369.25 289.01 369.14 C 288.52 362.82 289.12 356.47 288.76 350.14 C 288.12 347.08 285.01 344.93 281.89 345.44 C 280.44 348.05 278.87 350.60 276.92 352.87 M 292.48 354.91 C 293.29 354.89 294.92 354.83 295.73 354.81 C 295.83 360.42 295.85 366.03 295.72 371.64 C 294.45 373.15 293.29 374.73 292.29 376.43 C 293.72 376.19 295.15 375.94 296.58 375.68 C 297.89 376.97 299.11 378.44 300.80 379.26 C 303.95 379.35 306.54 377.19 309.06 375.58 C 309.85 377.82 311.16 379.97 313.91 379.43 C 315.17 376.96 316.54 374.55 317.86 372.11 C 317.03 372.43 315.38 373.08 314.55 373.40 C 313.18 368.79 314.04 363.93 313.81 359.20 C 315.14 357.72 316.50 356.24 317.90 354.82 C 315.25 354.83 313.10 353.36 310.86 352.20 C 306.87 351.99 304.70 355.82 302.44 358.43 C 303.42 358.19 305.38 357.71 306.36 357.47 C 308.05 361.77 307.52 366.48 307.38 370.99 C 307.26 372.58 305.99 374.93 304.08 374.27 C 302.48 374.20 302.05 372.38 301.88 371.11 C 301.63 364.09 302.01 357.05 301.77 350.03 C 301.66 348.58 300.00 347.94 299.17 346.91 C 296.80 349.43 292.57 350.95 292.48 354.91 M 327.87 357.78 C 324.72 359.66 321.70 361.74 318.55 363.59 C 318.59 366.35 318.60 369.11 318.67 371.87 C 322.99 374.05 327.75 375.14 332.54 375.62 C 332.39 377.81 332.85 380.34 331.08 382.02 C 330.31 383.14 328.68 382.53 327.54 382.84 C 326.50 380.71 326.76 378.25 325.82 376.11 C 325.42 376.01 324.63 375.80 324.23 375.69 C 321.50 378.28 317.11 379.87 316.26 383.85 C 318.06 383.25 319.84 382.58 321.63 381.97 C 322.94 384.64 324.23 389.11 328.05 388.39 C 331.36 386.39 334.62 384.26 338.27 382.90 C 338.31 379.51 338.31 376.13 338.32 372.75 C 336.25 372.55 334.18 372.34 332.12 372.14 C 334.08 369.74 336.14 367.42 338.02 364.95 C 338.71 364.13 338.86 363.19 338.46 362.14 C 336.84 362.73 335.31 363.56 333.76 364.31 C 332.80 362.17 332.33 359.86 332.09 357.55 C 330.69 357.48 329.14 356.92 327.87 357.78 M 254.33 387.76 C 254.72 388.50 255.51 389.99 255.91 390.73 C 258.43 390.47 260.91 389.96 263.40 389.51 C 263.50 392.73 263.38 395.95 263.30 399.17 C 261.17 400.04 257.97 400.30 258.46 403.44 C 259.91 403.34 261.36 403.25 262.82 403.18 C 262.22 404.76 260.87 405.50 259.30 405.86 C 259.19 406.86 259.09 407.86 259.01 408.87 C 260.48 408.52 261.95 408.17 263.42 407.81 C 263.37 409.79 263.32 411.77 263.23 413.76 C 261.56 415.60 259.91 417.45 258.27 419.33 C 258.73 419.70 259.65 420.43 260.10 420.80 C 263.01 419.68 265.69 418.05 268.52 416.76 C 271.22 418.66 274.06 420.38 277.11 421.67 C 281.29 419.01 283.75 414.53 286.41 410.50 C 286.84 400.78 286.39 391.02 286.63 381.29 C 282.07 380.47 277.51 379.69 272.91 379.18 C 267.00 382.52 261.44 387.48 254.33 387.76 M 292.37 397.30 C 292.39 400.83 292.38 404.36 292.39 407.89 C 291.30 408.58 290.22 409.28 289.13 409.98 C 289.13 411.18 289.14 412.39 289.16 413.60 C 290.40 412.81 291.65 412.02 292.90 411.24 C 293.99 413.01 294.71 415.18 296.41 416.48 C 300.57 417.63 303.48 413.27 306.98 411.75 C 306.60 411.06 306.22 410.38 305.84 409.70 C 304.30 410.69 302.73 411.64 301.14 412.54 C 300.49 412.19 299.20 411.48 298.56 411.13 C 298.56 408.98 298.56 406.83 298.57 404.69 C 302.28 403.53 306.01 402.44 309.72 401.26 C 308.30 398.04 307.82 394.25 305.39 391.58 C 300.22 389.78 296.16 394.58 292.37 397.30 M 312.30 402.00 C 312.22 405.80 312.22 409.60 312.30 413.41 C 311.04 414.29 309.78 415.16 308.52 416.03 C 308.57 416.93 308.68 418.74 308.74 419.65 C 310.09 418.82 311.45 418.00 312.82 417.19 C 313.82 418.96 314.73 420.82 316.05 422.40 C 321.77 424.22 327.95 420.78 330.82 415.82 C 332.01 411.22 331.18 406.38 331.47 401.68 C 329.37 399.63 327.56 397.27 325.20 395.52 C 320.06 394.85 316.25 399.40 312.30 402.00 Z"
     opacity="1.00"
     fill="#ffffff" />
  <path
     id="path102"
     d=" M 194.41 288.28 C 211.17 283.63 231.24 287.59 242.48 301.56 C 243.17 306.32 242.54 311.23 243.05 316.03 C 243.12 350.10 243.20 384.16 243.17 418.22 C 240.93 418.08 238.68 417.97 236.44 417.87 C 236.42 420.08 236.41 422.30 236.39 424.52 C 238.65 424.50 240.92 424.48 243.18 424.46 C 243.12 430.12 243.27 435.77 243.23 441.43 C 232.10 429.39 214.99 424.95 199.05 425.79 C 188.76 426.46 179.15 430.49 169.88 434.72 C 162.46 438.09 153.90 441.54 145.84 438.16 C 145.86 398.08 145.83 358.01 145.85 317.93 C 146.01 314.37 146.59 310.84 146.42 307.27 C 154.35 307.39 162.34 305.41 169.14 301.30 C 177.28 296.47 185.06 290.59 194.41 288.28 M 200.55 305.47 C 198.68 307.97 195.59 309.17 193.72 311.67 C 194.68 311.63 196.61 311.54 197.57 311.49 C 197.52 316.38 197.57 321.26 197.53 326.15 C 196.34 327.54 195.19 328.95 194.07 330.39 C 195.60 330.37 197.12 330.38 198.65 330.45 C 200.17 331.45 201.55 332.64 203.01 333.72 C 206.28 332.15 208.58 329.25 210.20 326.08 C 208.10 326.49 206.04 327.06 203.95 327.49 C 203.51 322.20 203.66 316.89 203.65 311.59 C 205.50 311.60 207.36 311.61 209.22 311.62 C 209.21 310.66 209.19 308.74 209.18 307.78 C 207.66 307.79 206.13 307.80 204.62 307.82 C 204.62 304.76 204.65 301.71 204.58 298.66 C 203.26 300.94 202.15 303.36 200.55 305.47 M 172.36 318.02 C 174.76 322.36 173.03 327.77 173.49 332.57 C 173.81 332.58 174.45 332.60 174.77 332.61 C 174.79 328.13 174.79 323.65 174.77 319.17 C 176.76 317.13 177.77 313.06 181.16 313.25 C 181.28 320.14 181.06 327.04 181.23 333.94 C 181.30 336.21 183.48 337.51 184.97 338.90 C 187.93 336.89 189.30 333.53 190.78 330.43 C 189.73 330.72 187.65 331.31 186.60 331.60 C 186.60 325.40 186.71 319.20 186.60 313.00 C 186.51 310.05 184.75 307.53 183.02 305.29 C 178.61 308.75 175.74 313.65 172.36 318.02 M 162.02 313.57 C 155.95 313.88 152.83 323.66 158.71 326.66 C 159.55 326.52 161.22 326.25 162.06 326.11 C 159.68 330.49 156.62 336.39 159.84 341.07 C 163.72 344.86 170.71 345.66 174.98 342.00 C 176.62 340.54 177.53 338.48 178.60 336.60 C 174.83 338.20 169.16 339.21 166.83 334.85 C 165.74 329.85 168.51 324.98 170.66 320.63 C 168.79 321.35 166.91 322.13 164.90 322.34 C 163.54 321.88 162.37 320.78 163.43 319.36 C 165.28 316.01 168.62 313.88 171.23 311.18 C 168.19 312.08 165.21 313.29 162.02 313.57 M 177.44 344.01 C 174.74 346.79 171.99 349.55 169.21 352.26 C 169.19 354.54 169.18 356.82 169.17 359.11 C 168.55 359.14 167.31 359.19 166.69 359.21 C 166.70 360.02 166.71 361.64 166.72 362.45 C 167.22 362.48 168.22 362.53 168.72 362.56 C 168.62 369.05 168.72 375.53 168.71 382.02 C 168.92 385.13 166.95 387.77 164.87 389.86 C 162.95 391.80 159.99 391.21 157.56 391.58 C 156.81 390.27 158.01 389.20 159.46 389.38 C 163.45 388.92 165.34 384.63 165.36 381.05 C 165.49 372.76 165.21 364.47 165.45 356.18 C 163.81 360.49 160.14 363.27 156.60 365.95 C 156.59 366.79 156.55 368.47 156.53 369.31 C 157.74 369.32 158.96 369.34 160.18 369.37 C 160.06 374.20 160.38 379.06 160.05 383.89 C 159.85 386.46 158.00 388.63 155.77 389.76 C 153.99 389.54 152.63 388.00 151.08 387.17 C 152.81 389.77 154.67 392.90 157.95 393.66 C 165.67 395.13 174.78 390.25 176.20 382.18 C 176.37 375.61 176.22 369.03 176.24 362.47 C 176.99 362.48 178.49 362.50 179.24 362.51 C 179.22 361.71 179.19 360.10 179.17 359.30 C 178.34 359.29 176.67 359.28 175.83 359.28 C 175.83 356.32 175.83 353.36 175.79 350.40 C 179.08 352.32 182.83 351.74 185.96 349.82 C 182.98 348.08 180.10 346.19 177.44 344.01 M 205.14 354.55 C 204.77 353.87 204.02 352.50 203.65 351.82 C 201.24 353.20 198.54 354.42 197.16 357.00 C 195.86 355.58 194.58 354.14 193.34 352.68 C 191.54 354.32 189.70 355.91 187.86 357.51 C 187.47 356.85 186.69 355.54 186.29 354.89 C 184.06 355.96 181.80 357.14 180.16 359.05 C 180.90 360.46 182.66 359.36 183.88 359.52 C 183.82 364.32 183.87 369.11 183.84 373.91 C 182.58 375.39 181.38 376.91 180.26 378.51 C 181.81 378.43 183.35 378.35 184.90 378.27 C 186.79 379.56 189.03 381.78 191.49 380.45 C 193.73 378.85 195.39 376.52 196.27 373.92 C 194.07 374.65 191.93 375.56 189.68 376.16 C 189.12 370.89 189.42 365.59 189.38 360.31 C 190.29 359.77 191.21 359.23 192.12 358.69 C 194.24 361.80 197.59 360.27 200.10 358.66 C 199.55 358.21 198.47 357.31 197.93 356.86 C 198.76 356.70 200.43 356.39 201.26 356.24 C 201.23 361.09 201.27 365.94 201.23 370.80 C 200.06 372.36 198.91 373.92 197.80 375.52 C 199.53 375.74 201.60 374.73 203.13 375.92 C 204.65 376.68 206.04 378.16 207.89 377.93 C 210.56 377.46 212.67 375.56 214.89 374.14 C 215.44 376.82 217.48 378.38 220.19 377.78 C 220.86 375.92 221.56 374.07 222.15 372.19 C 223.93 375.09 225.36 378.20 227.06 381.16 C 229.18 381.61 231.64 383.02 233.67 381.63 C 235.53 379.63 236.39 376.94 237.72 374.60 C 235.56 376.07 233.13 377.01 230.47 376.84 C 229.29 371.83 229.95 366.65 229.79 361.55 C 232.16 362.32 234.56 363.59 237.13 363.29 C 238.62 362.61 239.95 361.62 241.30 360.69 C 237.97 359.53 235.26 357.32 232.65 355.02 C 229.36 356.32 226.66 358.75 223.66 360.58 C 223.68 363.93 223.68 367.29 223.66 370.64 C 222.35 371.12 221.05 371.59 219.74 372.07 C 219.00 366.72 219.42 361.30 219.34 355.93 C 218.98 354.00 220.80 352.94 221.84 351.66 C 218.77 352.14 216.20 350.62 214.19 348.48 C 211.25 350.62 208.18 352.56 205.14 354.55 M 204.37 390.44 C 203.92 390.42 203.00 390.37 202.55 390.34 C 202.54 391.16 202.53 392.81 202.52 393.63 C 203.06 393.62 204.14 393.60 204.68 393.59 C 205.05 400.11 203.71 406.81 205.52 413.19 C 207.09 414.20 208.57 415.42 210.38 415.99 C 213.95 415.52 215.62 411.76 217.22 408.98 C 215.44 409.77 213.67 410.63 211.71 410.85 C 210.69 405.14 210.93 399.35 211.26 393.59 C 212.39 393.59 213.53 393.60 214.66 393.60 C 214.66 392.62 214.65 391.64 214.65 390.67 C 213.81 390.68 212.13 390.68 211.29 390.69 C 211.31 389.67 211.34 387.64 211.35 386.62 C 214.58 388.25 218.21 387.83 221.17 385.86 C 218.27 384.26 215.43 382.50 213.00 380.22 C 210.15 383.63 205.86 386.07 204.37 390.44 M 187.04 387.96 C 187.99 388.89 188.94 389.83 189.89 390.77 C 191.22 389.16 192.59 387.58 193.96 386.00 C 192.99 385.16 192.03 384.33 191.07 383.50 C 189.74 385.00 188.40 386.48 187.04 387.96 M 227.01 383.47 C 225.74 384.96 224.44 386.44 223.14 387.91 C 224.06 388.84 224.99 389.78 225.91 390.73 C 227.25 389.12 228.61 387.53 229.99 385.96 C 229.00 385.12 228.00 384.30 227.01 383.47 M 235.88 385.33 C 235.90 387.36 235.91 389.40 235.94 391.45 C 238.15 391.45 240.37 391.46 242.58 391.49 C 242.56 389.40 242.56 387.32 242.57 385.25 C 240.34 385.26 238.11 385.28 235.88 385.33 M 170.89 395.96 C 169.04 398.62 165.68 399.67 163.91 402.42 C 164.90 402.36 166.89 402.24 167.88 402.18 C 167.83 407.01 167.93 411.85 167.79 416.68 C 166.52 418.18 165.33 419.73 164.28 421.39 C 165.29 421.21 167.33 420.85 168.34 420.67 C 169.95 421.83 171.33 423.47 173.32 423.99 C 176.81 423.03 178.79 419.59 180.37 416.60 C 178.44 416.92 176.49 418.20 174.52 417.85 C 173.28 412.81 174.14 407.56 173.87 402.42 C 175.70 402.37 177.53 402.35 179.37 402.34 C 179.37 401.39 179.38 399.50 179.39 398.55 C 177.83 398.53 176.28 398.51 174.74 398.50 C 174.76 395.42 174.77 392.34 174.74 389.27 C 173.50 391.52 172.38 393.86 170.89 395.96 M 190.19 392.16 C 188.39 395.20 185.20 396.81 182.77 399.23 C 183.86 399.28 186.04 399.38 187.13 399.43 C 187.31 404.40 186.52 409.50 187.70 414.38 C 189.17 416.24 191.62 418.05 194.14 417.49 C 196.64 415.88 198.14 413.20 199.52 410.65 C 197.19 411.21 194.99 412.15 192.76 413.01 C 192.10 407.63 192.45 402.20 192.41 396.80 C 194.04 395.96 195.67 395.14 197.32 394.38 C 194.79 394.18 192.13 393.99 190.19 392.16 M 218.85 399.31 C 219.91 399.33 222.03 399.37 223.09 399.39 C 223.30 404.42 222.47 409.59 223.74 414.52 C 225.35 416.17 227.58 418.11 230.08 417.48 C 232.62 415.91 234.20 413.25 235.41 410.60 C 233.11 411.23 230.99 412.44 228.59 412.69 C 228.21 407.44 228.41 402.17 228.35 396.91 C 229.95 396.03 231.55 395.17 233.18 394.36 C 230.83 394.01 228.09 394.24 226.48 392.13 C 224.39 395.01 221.17 396.68 218.85 399.31 Z"
     opacity="1.00"
     fill="#ffffff" />
  <path
     id="path104"
     d=" M 200.55 305.47 C 202.15 303.36 203.26 300.94 204.58 298.66 C 204.65 301.71 204.62 304.76 204.62 307.82 C 206.13 307.80 207.66 307.79 209.18 307.78 C 209.19 308.74 209.21 310.66 209.22 311.62 C 207.36 311.61 205.50 311.60 203.65 311.59 C 203.66 316.89 203.51 322.20 203.95 327.49 C 206.04 327.06 208.10 326.49 210.20 326.08 C 208.58 329.25 206.28 332.15 203.01 333.72 C 201.55 332.64 200.17 331.45 198.65 330.45 C 197.12 330.38 195.60 330.37 194.07 330.39 C 195.19 328.95 196.34 327.54 197.53 326.15 C 197.57 321.26 197.52 316.38 197.57 311.49 C 196.61 311.54 194.68 311.63 193.72 311.67 C 195.59 309.17 198.68 307.97 200.55 305.47 Z"
     opacity="1.00"
     fill="#242021" />
  <path
     id="path106"
     d=" M 272.60 310.71 C 275.95 308.43 279.31 306.15 282.75 304.01 C 285.18 306.57 288.02 308.70 291.38 309.88 C 289.77 311.00 288.20 312.69 286.07 312.56 C 283.95 312.27 281.92 311.57 279.85 311.10 C 280.22 315.89 279.95 320.72 280.51 325.49 C 283.31 328.50 287.05 325.68 289.10 323.30 C 287.61 326.33 286.27 329.56 283.92 332.04 C 281.90 333.69 279.24 333.25 276.94 332.57 C 275.49 330.52 274.01 328.50 272.57 326.45 C 272.66 321.20 272.62 315.96 272.60 310.71 Z"
     opacity="1.00"
     fill="#242021" />
  <path
     id="path108"
     d=" M 172.36 318.02 C 175.74 313.65 178.61 308.75 183.02 305.29 C 184.75 307.53 186.51 310.05 186.60 313.00 C 186.71 319.20 186.60 325.40 186.60 331.60 C 187.65 331.31 189.73 330.72 190.78 330.43 C 189.30 333.53 187.93 336.89 184.97 338.90 C 183.48 337.51 181.30 336.21 181.23 333.94 C 181.06 327.04 181.28 320.14 181.16 313.25 C 177.77 313.06 176.76 317.13 174.77 319.17 C 174.79 323.65 174.79 328.13 174.77 332.61 C 174.45 332.60 173.81 332.58 173.49 332.57 C 173.03 327.77 174.76 322.36 172.36 318.02 Z"
     opacity="1.00"
     fill="#242021" />
  <path
     id="path110"
     d=" M 298.50 316.77 C 302.05 314.16 305.45 310.70 309.98 310.00 C 315.21 310.54 315.22 317.25 316.92 321.08 C 313.01 322.16 309.14 323.36 305.28 324.57 C 305.76 327.32 303.65 332.53 307.93 332.66 C 309.95 332.52 313.32 328.18 314.07 331.89 C 311.18 333.93 308.35 336.28 305.01 337.51 C 301.58 337.75 300.65 333.73 299.06 331.49 C 297.79 332.34 296.54 333.21 295.27 334.05 C 295.20 332.79 295.14 331.54 295.09 330.29 C 296.22 329.57 297.34 328.85 298.48 328.14 C 298.49 324.35 298.48 320.56 298.50 316.77 M 305.37 321.97 C 306.81 321.63 308.29 321.37 309.70 320.90 C 310.41 318.53 309.22 316.46 307.18 315.29 C 305.21 317.02 305.38 319.60 305.37 321.97 Z"
     opacity="1.00"
     fill="#242021" />
  <path
     id="path112"
     d=" M 162.02 313.57 C 165.21 313.29 168.19 312.08 171.23 311.18 C 168.62 313.88 165.28 316.01 163.43 319.36 C 162.37 320.78 163.54 321.88 164.90 322.34 C 166.91 322.13 168.79 321.35 170.66 320.63 C 168.51 324.98 165.74 329.85 166.83 334.85 C 169.16 339.21 174.83 338.20 178.60 336.60 C 177.53 338.48 176.62 340.54 174.98 342.00 C 170.71 345.66 163.72 344.86 159.84 341.07 C 156.62 336.39 159.68 330.49 162.06 326.11 C 161.22 326.25 159.55 326.52 158.71 326.66 C 152.83 323.66 155.95 313.88 162.02 313.57 Z"
     opacity="1.00"
     fill="#242021" />
  <path
     id="path114"
     d=" M 347.87 315.40 C 348.56 315.38 349.94 315.33 350.63 315.31 C 350.60 317.67 350.57 320.03 350.54 322.39 C 351.00 322.44 351.92 322.55 352.38 322.61 C 352.33 363.87 352.34 405.12 352.37 446.38 C 347.70 449.12 342.08 448.29 336.97 447.68 C 326.35 446.48 316.86 441.20 306.80 438.02 C 294.05 433.90 280.14 433.73 267.19 437.03 C 261.61 438.41 256.46 441.07 251.85 444.47 C 251.15 444.48 249.75 444.51 249.05 444.53 C 257.17 434.89 269.73 430.07 282.08 429.28 C 292.66 427.77 303.28 430.78 312.87 435.09 C 321.77 438.89 330.97 443.98 341.01 442.53 C 343.96 442.14 348.35 440.82 347.88 437.05 C 347.88 396.50 347.89 355.95 347.87 315.40 Z"
     opacity="1.00"
     fill="#ffffff" />
  <path
     id="path116"
     d=" M 137.91 315.64 C 139.38 315.61 140.86 315.59 142.34 315.57 C 142.31 356.34 142.32 397.12 142.34 437.89 C 142.10 440.07 144.25 441.46 146.05 442.10 C 149.19 443.07 152.55 443.57 155.83 443.02 C 166.82 441.52 176.21 435.09 186.68 431.89 C 197.03 428.32 208.36 428.77 218.87 431.39 C 227.36 433.50 235.32 438.02 241.04 444.71 C 239.64 444.64 238.08 444.96 236.99 443.87 C 225.25 435.37 209.98 434.49 196.02 435.59 C 179.94 437.19 166.18 447.48 149.98 448.45 C 146.23 448.54 142.19 449.04 138.72 447.27 C 137.31 445.50 138.10 443.04 137.89 440.97 C 137.93 399.19 137.90 357.42 137.91 315.64 Z"
     opacity="1.00"
     fill="#ffffff" />
  <path
     id="path118"
     d=" M 305.37 321.97 C 305.38 319.60 305.21 317.02 307.18 315.29 C 309.22 316.46 310.41 318.53 309.70 320.90 C 308.29 321.37 306.81 321.63 305.37 321.97 Z"
     opacity="1.00"
     fill="#ffffff" />
  <path
     id="path120"
     d=" M 129.27 323.93 C 130.99 323.93 132.72 323.93 134.44 323.94 C 134.49 364.64 134.45 405.33 134.47 446.03 C 134.18 449.70 138.17 451.50 141.24 451.87 C 154.04 453.56 166.51 448.98 178.14 444.17 C 195.83 436.83 217.34 436.18 234.15 446.14 C 232.84 446.88 231.52 447.62 230.20 448.35 C 224.49 445.75 218.18 445.01 211.99 444.56 C 204.99 444.17 197.89 443.95 190.97 445.28 C 177.26 447.63 164.73 454.29 151.00 456.52 C 145.39 457.57 139.64 457.59 133.98 457.13 C 132.24 456.67 128.87 456.68 129.27 454.09 C 129.23 410.71 129.22 367.32 129.27 323.93 Z"
     opacity="1.00"
     fill="#ffffff" />
  <path
     id="path122"
     d=" M 355.79 323.48 C 357.24 323.47 358.70 323.48 360.16 323.49 C 359.96 326.71 361.06 329.78 361.15 332.98 C 361.14 365.00 361.16 397.02 361.15 429.04 C 361.05 437.87 361.42 446.71 360.79 455.52 C 348.56 459.18 335.53 455.93 323.73 452.09 C 311.56 447.84 299.07 443.47 285.99 443.79 C 277.89 444.24 269.60 444.40 261.89 447.20 C 259.89 448.05 258.02 446.35 256.16 445.89 C 266.96 438.80 280.45 437.79 293.00 438.73 C 309.41 440.27 323.45 450.96 340.03 451.64 C 344.81 451.70 350.32 452.50 354.36 449.34 C 355.73 448.33 355.81 446.54 355.81 445.00 C 355.78 404.49 355.80 363.98 355.79 323.48 Z"
     opacity="1.00"
     fill="#ffffff" />
  <path
     id="path124"
     d=" M 120.55 330.81 C 122.21 330.81 123.87 330.82 125.53 330.82 C 125.67 372.27 125.51 413.71 125.61 455.16 C 125.71 458.33 129.15 460.07 131.92 460.47 C 136.92 461.00 141.98 460.90 147.00 460.65 C 165.98 459.12 182.82 447.83 202.05 447.75 C 210.41 448.06 218.94 448.20 226.97 450.83 C 226.02 451.87 225.08 452.93 224.13 453.99 C 216.20 452.34 208.06 452.19 199.99 452.08 C 183.76 452.26 168.58 458.61 152.93 462.06 C 142.06 464.22 130.52 466.05 119.64 463.11 C 119.12 422.76 119.56 382.40 119.38 342.04 C 119.40 339.90 119.17 337.64 120.25 335.69 C 120.38 334.06 120.46 332.43 120.55 330.81 Z"
     opacity="1.00"
     fill="#ffffff" />
  <path
     id="path126"
     d=" M 364.66 330.64 C 366.75 330.63 368.85 330.63 370.95 330.64 C 370.14 337.73 371.44 344.84 370.87 351.96 C 370.48 388.85 370.85 425.75 370.68 462.65 C 364.04 464.87 356.87 464.37 350.02 463.72 C 333.91 462.38 318.88 455.85 303.07 453.00 C 291.24 450.79 279.04 451.52 267.23 453.43 C 266.24 452.30 265.24 451.17 264.26 450.04 C 273.31 447.82 282.71 447.15 292.00 447.58 C 311.29 449.10 328.43 460.51 347.98 460.62 C 353.60 460.44 360.74 461.53 364.58 456.40 C 364.75 414.48 364.63 372.56 364.66 330.64 Z"
     opacity="1.00"
     fill="#ffffff" />
  <path
     id="path128"
     d=" M 325.37 333.23 C 329.03 333.43 332.68 333.76 336.32 334.26 C 336.32 335.15 336.33 336.92 336.33 337.81 C 332.72 337.47 329.04 337.54 325.51 336.60 C 325.48 335.76 325.41 334.07 325.37 333.23 Z"
     opacity="1.00"
     fill="#242021" />
  <path
     id="path130"
     d=" M 112.27 339.32 C 113.44 339.32 114.61 339.33 115.79 339.34 C 115.78 380.24 115.55 421.14 115.93 462.03 C 115.72 465.03 118.63 466.82 121.20 467.37 C 129.30 468.88 137.60 468.16 145.71 467.09 C 159.77 465.07 173.08 459.86 186.97 457.06 C 198.73 454.71 210.89 455.51 222.65 457.40 C 222.60 459.14 222.56 460.89 222.53 462.63 C 210.44 460.77 197.97 460.65 185.99 463.33 C 167.37 467.29 149.21 474.12 130.01 474.80 C 124.16 474.86 118.27 475.13 112.45 474.34 C 112.41 429.33 112.51 384.33 112.27 339.32 Z"
     opacity="1.00"
     fill="#ffffff" />
  <path
     id="path132"
     d=" M 374.50 339.31 C 376.58 339.31 378.66 339.32 380.75 339.33 C 380.65 368.89 380.74 398.45 380.70 428.01 C 380.50 441.70 381.52 455.37 381.10 469.08 C 381.22 470.26 380.68 470.96 379.50 471.17 C 362.34 472.81 344.88 472.16 328.05 468.24 C 317.38 465.93 306.91 462.48 295.99 461.51 C 287.09 461.00 278.12 461.37 269.33 462.84 C 269.30 460.80 269.17 458.77 268.86 456.76 C 277.51 455.49 286.29 454.98 295.02 455.53 C 310.73 457.03 325.40 463.39 340.88 466.12 C 349.73 467.80 358.83 468.17 367.79 467.30 C 370.46 467.05 372.74 465.52 374.43 463.51 C 374.37 422.11 374.36 380.71 374.50 339.31 Z"
     opacity="1.00"
     fill="#ffffff" />
  <path
     id="path134"
     d=" M 325.48 339.26 C 329.06 339.52 332.68 339.61 336.20 340.42 C 336.26 341.27 336.39 342.97 336.46 343.82 C 332.87 343.39 329.11 343.76 325.67 342.55 C 325.62 341.73 325.53 340.08 325.48 339.26 Z"
     opacity="1.00"
     fill="#242021" />
  <path
     id="path136"
     d=" M 177.44 344.01 C 180.10 346.19 182.98 348.08 185.96 349.82 C 182.83 351.74 179.08 352.32 175.79 350.40 C 175.83 353.36 175.83 356.32 175.83 359.28 C 176.67 359.28 178.34 359.29 179.17 359.30 C 179.19 360.10 179.22 361.71 179.24 362.51 C 178.49 362.50 176.99 362.48 176.24 362.47 C 176.22 369.03 176.37 375.61 176.20 382.18 C 174.78 390.25 165.67 395.13 157.95 393.66 C 154.67 392.90 152.81 389.77 151.08 387.17 C 152.63 388.00 153.99 389.54 155.77 389.76 C 158.00 388.63 159.85 386.46 160.05 383.89 C 160.38 379.06 160.06 374.20 160.18 369.37 C 158.96 369.34 157.74 369.32 156.53 369.31 C 156.55 368.47 156.59 366.79 156.60 365.95 C 160.14 363.27 163.81 360.49 165.45 356.18 C 165.21 364.47 165.49 372.76 165.36 381.05 C 165.34 384.63 163.45 388.92 159.46 389.38 C 158.01 389.20 156.81 390.27 157.56 391.58 C 159.99 391.21 162.95 391.80 164.87 389.86 C 166.95 387.77 168.92 385.13 168.71 382.02 C 168.72 375.53 168.62 369.05 168.72 362.56 C 168.22 362.53 167.22 362.48 166.72 362.45 C 166.71 361.64 166.70 360.02 166.69 359.21 C 167.31 359.19 168.55 359.14 169.17 359.11 C 169.18 356.82 169.19 354.54 169.21 352.26 C 171.99 349.55 174.74 346.79 177.44 344.01 Z"
     opacity="1.00"
     fill="#242021" />
  <path
     id="path138"
     d=" M 276.92 352.87 C 278.87 350.60 280.44 348.05 281.89 345.44 C 285.01 344.93 288.12 347.08 288.76 350.14 C 289.12 356.47 288.52 362.82 289.01 369.14 C 289.86 369.25 291.54 369.48 292.39 369.59 C 290.65 372.13 289.35 375.03 287.14 377.22 C 285.21 377.66 282.33 377.89 281.55 375.57 C 279.75 368.98 281.50 362.05 280.44 355.39 C 280.12 353.84 277.92 354.15 277.25 355.24 C 275.19 356.90 275.85 359.69 275.73 361.98 C 275.87 366.10 274.97 370.59 277.62 374.16 C 276.12 375.77 274.61 377.39 273.09 378.99 C 271.43 377.62 269.76 376.27 268.09 374.93 C 269.75 369.46 269.46 363.51 268.35 357.96 C 266.94 358.31 264.50 358.28 264.33 360.16 C 264.10 364.70 264.13 369.27 264.31 373.82 C 265.08 374.97 266.11 375.93 267.04 376.96 C 264.85 379.08 262.64 381.17 260.29 383.12 C 258.41 381.58 256.49 380.09 254.55 378.62 C 255.58 377.69 256.61 376.77 257.65 375.86 C 257.64 370.29 257.74 364.71 257.59 359.14 C 255.93 359.69 254.30 360.30 252.66 360.88 C 254.12 357.30 256.92 354.52 259.06 351.37 C 261.05 352.01 262.53 353.43 263.86 354.99 C 265.81 352.48 267.65 349.87 269.89 347.61 C 273.39 346.18 274.80 351.05 276.92 352.87 Z"
     opacity="1.00"
     fill="#242021" />
  <path
     id="path140"
     d=" M 292.48 354.91 C 292.57 350.95 296.80 349.43 299.17 346.91 C 300.00 347.94 301.66 348.58 301.77 350.03 C 302.01 357.05 301.63 364.09 301.88 371.11 C 302.05 372.38 302.48 374.20 304.08 374.27 C 305.99 374.93 307.26 372.58 307.38 370.99 C 307.52 366.48 308.05 361.77 306.36 357.47 C 305.38 357.71 303.42 358.19 302.44 358.43 C 304.70 355.82 306.87 351.99 310.86 352.20 C 313.10 353.36 315.25 354.83 317.90 354.82 C 316.50 356.24 315.14 357.72 313.81 359.20 C 314.04 363.93 313.18 368.79 314.55 373.40 C 315.38 373.08 317.03 372.43 317.86 372.11 C 316.54 374.55 315.17 376.96 313.91 379.43 C 311.16 379.97 309.85 377.82 309.06 375.58 C 306.54 377.19 303.95 379.35 300.80 379.26 C 299.11 378.44 297.89 376.97 296.58 375.68 C 295.15 375.94 293.72 376.19 292.29 376.43 C 293.29 374.73 294.45 373.15 295.72 371.64 C 295.85 366.03 295.83 360.42 295.73 354.81 C 294.92 354.83 293.29 354.89 292.48 354.91 Z"
     opacity="1.00"
     fill="#242021" />
  <path
     id="path142"
     d=" M 74.42 357.12 C 74.58 353.99 75.46 350.02 79.11 349.37 C 83.08 348.40 86.05 352.23 85.95 355.90 C 92.38 355.99 98.81 355.92 105.23 355.94 C 105.23 360.14 105.20 364.35 105.26 368.56 C 98.74 368.51 92.22 368.55 85.70 368.54 C 85.57 370.52 85.99 372.87 84.47 374.47 C 82.34 377.19 77.80 377.12 75.88 374.18 C 74.04 372.23 74.86 369.58 75.44 367.31 C 72.05 368.13 67.60 367.81 66.47 363.85 C 65.00 359.18 70.19 355.42 74.42 357.12 M 77.33 356.76 C 77.31 360.75 77.33 364.75 77.30 368.74 C 78.97 368.72 80.65 368.71 82.33 368.70 C 82.31 364.72 82.31 360.74 82.33 356.77 C 80.66 356.76 79.00 356.76 77.33 356.76 Z"
     opacity="1.00"
     fill="#ffffff" />
  <path
     id="path144"
     d=" M 205.14 354.55 C 208.18 352.56 211.25 350.62 214.19 348.48 C 216.20 350.62 218.77 352.14 221.84 351.66 C 220.80 352.94 218.98 354.00 219.34 355.93 C 219.42 361.30 219.00 366.72 219.74 372.07 C 221.05 371.59 222.35 371.12 223.66 370.64 C 223.68 367.29 223.68 363.93 223.66 360.58 C 226.66 358.75 229.36 356.32 232.65 355.02 C 235.26 357.32 237.97 359.53 241.30 360.69 C 239.95 361.62 238.62 362.61 237.13 363.29 C 234.56 363.59 232.16 362.32 229.79 361.55 C 229.95 366.65 229.29 371.83 230.47 376.84 C 233.13 377.01 235.56 376.07 237.72 374.60 C 236.39 376.94 235.53 379.63 233.67 381.63 C 231.64 383.02 229.18 381.61 227.06 381.16 C 225.36 378.20 223.93 375.09 222.15 372.19 C 221.56 374.07 220.86 375.92 220.19 377.78 C 217.48 378.38 215.44 376.82 214.89 374.14 C 212.67 375.56 210.56 377.46 207.89 377.93 C 206.04 378.16 204.65 376.68 203.13 375.92 C 201.60 374.73 199.53 375.74 197.80 375.52 C 198.91 373.92 200.06 372.36 201.23 370.80 C 201.27 365.94 201.23 361.09 201.26 356.24 C 200.43 356.39 198.76 356.70 197.93 356.86 C 198.47 357.31 199.55 358.21 200.10 358.66 C 197.59 360.27 194.24 361.80 192.12 358.69 C 191.21 359.23 190.29 359.77 189.38 360.31 C 189.42 365.59 189.12 370.89 189.68 376.16 C 191.93 375.56 194.07 374.65 196.27 373.92 C 195.39 376.52 193.73 378.85 191.49 380.45 C 189.03 381.78 186.79 379.56 184.90 378.27 C 183.35 378.35 181.81 378.43 180.26 378.51 C 181.38 376.91 182.58 375.39 183.84 373.91 C 183.87 369.11 183.82 364.32 183.88 359.52 C 182.66 359.36 180.90 360.46 180.16 359.05 C 181.80 357.14 184.06 355.96 186.29 354.89 C 186.69 355.54 187.47 356.85 187.86 357.51 C 189.70 355.91 191.54 354.32 193.34 352.68 C 194.58 354.14 195.86 355.58 197.16 357.00 C 198.54 354.42 201.24 353.20 203.65 351.82 C 204.02 352.50 204.77 353.87 205.14 354.55 M 206.54 357.13 C 206.77 362.68 205.73 368.40 207.39 373.80 C 209.70 373.88 212.78 373.42 213.42 370.77 C 213.73 364.60 213.44 358.40 213.54 352.22 C 211.23 353.88 208.90 355.53 206.54 357.13 Z"
     opacity="1.00"
     fill="#242021" />
  <path
     id="path146"
     d=" M 206.54 357.13 C 208.90 355.53 211.23 353.88 213.54 352.22 C 213.44 358.40 213.73 364.60 213.42 370.77 C 212.78 373.42 209.70 373.88 207.39 373.80 C 205.73 368.40 206.77 362.68 206.54 357.13 Z"
     opacity="1.00"
     fill="#ffffff" />
  <path
     id="path148"
     d=" M 77.33 356.76 C 79.00 356.76 80.66 356.76 82.33 356.77 C 82.31 360.74 82.31 364.72 82.33 368.70 C 80.65 368.71 78.97 368.72 77.30 368.74 C 77.33 364.75 77.31 360.75 77.33 356.76 Z"
     opacity="1.00"
     fill="#242021" />
  <path
     id="path150"
     d=" M 388.30 355.94 C 395.81 356.13 403.37 355.56 410.86 356.22 C 415.58 358.24 420.03 360.87 424.72 362.99 C 419.74 364.91 415.16 367.85 410.03 369.31 C 402.79 369.51 395.54 369.11 388.30 369.30 C 388.27 364.84 388.27 360.39 388.30 355.94 M 392.43 361.94 C 392.70 362.83 392.97 363.73 393.35 364.59 C 394.47 364.67 395.60 364.72 396.73 364.73 C 396.97 363.01 396.55 361.45 395.23 360.29 C 394.29 360.83 393.36 361.38 392.43 361.94 M 405.31 360.65 C 403.28 360.86 403.39 363.05 403.42 364.59 C 404.80 364.61 406.19 364.61 407.58 364.56 C 407.68 362.97 407.44 360.51 405.31 360.65 Z"
     opacity="1.00"
     fill="#ffffff" />
  <path
     id="path152"
     d=" M 327.87 357.78 C 329.14 356.92 330.69 357.48 332.09 357.55 C 332.33 359.86 332.80 362.17 333.76 364.31 C 335.31 363.56 336.84 362.73 338.46 362.14 C 338.86 363.19 338.71 364.13 338.02 364.95 C 336.14 367.42 334.08 369.74 332.12 372.14 C 334.18 372.34 336.25 372.55 338.32 372.75 C 338.31 376.13 338.31 379.51 338.27 382.90 C 334.62 384.26 331.36 386.39 328.05 388.39 C 324.23 389.11 322.94 384.64 321.63 381.97 C 319.84 382.58 318.06 383.25 316.26 383.85 C 317.11 379.87 321.50 378.28 324.23 375.69 C 324.63 375.80 325.42 376.01 325.82 376.11 C 326.76 378.25 326.50 380.71 327.54 382.84 C 328.68 382.53 330.31 383.14 331.08 382.02 C 332.85 380.34 332.39 377.81 332.54 375.62 C 327.75 375.14 322.99 374.05 318.67 371.87 C 318.60 369.11 318.59 366.35 318.55 363.59 C 321.70 361.74 324.72 359.66 327.87 357.78 M 325.54 371.36 C 327.16 371.47 328.78 371.58 330.41 371.68 C 330.44 369.34 330.63 364.83 327.15 365.21 C 324.23 365.89 325.39 369.25 325.54 371.36 Z"
     opacity="1.00"
     fill="#242021" />
  <path
     id="path154"
     d=" M 392.43 361.94 C 393.36 361.38 394.29 360.83 395.23 360.29 C 396.55 361.45 396.97 363.01 396.73 364.73 C 395.60 364.72 394.47 364.67 393.35 364.59 C 392.97 363.73 392.70 362.83 392.43 361.94 Z"
     opacity="1.00"
     fill="#242021" />
  <path
     id="path156"
     d=" M 405.31 360.65 C 407.44 360.51 407.68 362.97 407.58 364.56 C 406.19 364.61 404.80 364.61 403.42 364.59 C 403.39 363.05 403.28 360.86 405.31 360.65 Z"
     opacity="1.00"
     fill="#242021" />
  <path
     id="path158"
     d=" M 325.54 371.36 C 325.39 369.25 324.23 365.89 327.15 365.21 C 330.63 364.83 330.44 369.34 330.41 371.68 C 328.78 371.58 327.16 371.47 325.54 371.36 Z"
     opacity="1.00"
     fill="#ffffff" />
  <path
     id="path160"
     d=" M 254.33 387.76 C 261.44 387.48 267.00 382.52 272.91 379.18 C 277.51 379.69 282.07 380.47 286.63 381.29 C 286.39 391.02 286.84 400.78 286.41 410.50 C 283.75 414.53 281.29 419.01 277.11 421.67 C 274.06 420.38 271.22 418.66 268.52 416.76 C 265.69 418.05 263.01 419.68 260.10 420.80 C 259.65 420.43 258.73 419.70 258.27 419.33 C 259.91 417.45 261.56 415.60 263.23 413.76 C 263.32 411.77 263.37 409.79 263.42 407.81 C 261.95 408.17 260.48 408.52 259.01 408.87 C 259.09 407.86 259.19 406.86 259.30 405.86 C 260.87 405.50 262.22 404.76 262.82 403.18 C 261.36 403.25 259.91 403.34 258.46 403.44 C 257.97 400.30 261.17 400.04 263.30 399.17 C 263.38 395.95 263.50 392.73 263.40 389.51 C 260.91 389.96 258.43 390.47 255.91 390.73 C 255.51 389.99 254.72 388.50 254.33 387.76 M 274.08 386.77 C 271.83 390.45 272.95 394.93 272.71 399.00 C 272.92 403.26 272.16 407.64 273.21 411.81 C 273.45 413.81 275.53 414.09 277.12 414.50 C 279.32 409.96 278.09 404.81 278.39 399.97 C 278.13 396.05 279.08 391.90 277.63 388.16 C 277.34 386.42 275.46 386.19 274.08 386.77 Z"
     opacity="1.00"
     fill="#242021" />
  <path
     id="path162"
     d=" M 204.37 390.44 C 205.86 386.07 210.15 383.63 213.00 380.22 C 215.43 382.50 218.27 384.26 221.17 385.86 C 218.21 387.83 214.58 388.25 211.35 386.62 C 211.34 387.64 211.31 389.67 211.29 390.69 C 212.13 390.68 213.81 390.68 214.65 390.67 C 214.65 391.64 214.66 392.62 214.66 393.60 C 213.53 393.60 212.39 393.59 211.26 393.59 C 210.93 399.35 210.69 405.14 211.71 410.85 C 213.67 410.63 215.44 409.77 217.22 408.98 C 215.62 411.76 213.95 415.52 210.38 415.99 C 208.57 415.42 207.09 414.20 205.52 413.19 C 203.71 406.81 205.05 400.11 204.68 393.59 C 204.14 393.60 203.06 393.62 202.52 393.63 C 202.53 392.81 202.54 391.16 202.55 390.34 C 203.00 390.37 203.92 390.42 204.37 390.44 Z"
     opacity="1.00"
     fill="#242021" />
  <path
     id="path164"
     d=" M 187.04 387.96 C 188.40 386.48 189.74 385.00 191.07 383.50 C 192.03 384.33 192.99 385.16 193.96 386.00 C 192.59 387.58 191.22 389.16 189.89 390.77 C 188.94 389.83 187.99 388.89 187.04 387.96 Z"
     opacity="1.00"
     fill="#242021" />
  <path
     id="path166"
     d=" M 227.01 383.47 C 228.00 384.30 229.00 385.12 229.99 385.96 C 228.61 387.53 227.25 389.12 225.91 390.73 C 224.99 389.78 224.06 388.84 223.14 387.91 C 224.44 386.44 225.74 384.96 227.01 383.47 Z"
     opacity="1.00"
     fill="#242021" />
  <path
     id="path168"
     d=" M 235.88 385.33 C 238.11 385.28 240.34 385.26 242.57 385.25 C 242.56 387.32 242.56 389.40 242.58 391.49 C 240.37 391.46 238.15 391.45 235.94 391.45 C 235.91 389.40 235.90 387.36 235.88 385.33 Z"
     opacity="1.00"
     fill="#242021" />
  <path
     id="path170"
     d=" M 274.08 386.77 C 275.46 386.19 277.34 386.42 277.63 388.16 C 279.08 391.90 278.13 396.05 278.39 399.97 C 278.09 404.81 279.32 409.96 277.12 414.50 C 275.53 414.09 273.45 413.81 273.21 411.81 C 272.16 407.64 272.92 403.26 272.71 399.00 C 272.95 394.93 271.83 390.45 274.08 386.77 Z"
     opacity="1.00"
     fill="#ffffff" />
  <path
     id="path172"
     d=" M 170.89 395.96 C 172.38 393.86 173.50 391.52 174.74 389.27 C 174.77 392.34 174.76 395.42 174.74 398.50 C 176.28 398.51 177.83 398.53 179.39 398.55 C 179.38 399.50 179.37 401.39 179.37 402.34 C 177.53 402.35 175.70 402.37 173.87 402.42 C 174.14 407.56 173.28 412.81 174.52 417.85 C 176.49 418.20 178.44 416.92 180.37 416.60 C 178.79 419.59 176.81 423.03 173.32 423.99 C 171.33 423.47 169.95 421.83 168.34 420.67 C 167.33 420.85 165.29 421.21 164.28 421.39 C 165.33 419.73 166.52 418.18 167.79 416.68 C 167.93 411.85 167.83 407.01 167.88 402.18 C 166.89 402.24 164.90 402.36 163.91 402.42 C 165.68 399.67 169.04 398.62 170.89 395.96 Z"
     opacity="1.00"
     fill="#242021" />
  <path
     id="path174"
     d=" M 292.37 397.30 C 296.16 394.58 300.22 389.78 305.39 391.58 C 307.82 394.25 308.30 398.04 309.72 401.26 C 306.01 402.44 302.28 403.53 298.57 404.69 C 298.56 406.83 298.56 408.98 298.56 411.13 C 299.20 411.48 300.49 412.19 301.14 412.54 C 302.73 411.64 304.30 410.69 305.84 409.70 C 306.22 410.38 306.60 411.06 306.98 411.75 C 303.48 413.27 300.57 417.63 296.41 416.48 C 294.71 415.18 293.99 413.01 292.90 411.24 C 291.65 412.02 290.40 412.81 289.16 413.60 C 289.14 412.39 289.13 411.18 289.13 409.98 C 290.22 409.28 291.30 408.58 292.39 407.89 C 292.38 404.36 292.39 400.83 292.37 397.30 M 299.54 396.34 C 299.05 398.29 298.80 400.28 298.71 402.29 C 300.26 401.89 301.80 401.50 303.35 401.11 C 302.85 398.82 302.46 396.09 299.54 396.34 Z"
     opacity="1.00"
     fill="#242021" />
  <path
     id="path176"
     d=" M 190.19 392.16 C 192.13 393.99 194.79 394.18 197.32 394.38 C 195.67 395.14 194.04 395.96 192.41 396.80 C 192.45 402.20 192.10 407.63 192.76 413.01 C 194.99 412.15 197.19 411.21 199.52 410.65 C 198.14 413.20 196.64 415.88 194.14 417.49 C 191.62 418.05 189.17 416.24 187.70 414.38 C 186.52 409.50 187.31 404.40 187.13 399.43 C 186.04 399.38 183.86 399.28 182.77 399.23 C 185.20 396.81 188.39 395.20 190.19 392.16 Z"
     opacity="1.00"
     fill="#242021" />
  <path
     id="path178"
     d=" M 218.85 399.31 C 221.17 396.68 224.39 395.01 226.48 392.13 C 228.09 394.24 230.83 394.01 233.18 394.36 C 231.55 395.17 229.95 396.03 228.35 396.91 C 228.41 402.17 228.21 407.44 228.59 412.69 C 230.99 412.44 233.11 411.23 235.41 410.60 C 234.20 413.25 232.62 415.91 230.08 417.48 C 227.58 418.11 225.35 416.17 223.74 414.52 C 222.47 409.59 223.30 404.42 223.09 399.39 C 222.03 399.37 219.91 399.33 218.85 399.31 Z"
     opacity="1.00"
     fill="#242021" />
  <path
     id="path180"
     d=" M 299.54 396.34 C 302.46 396.09 302.85 398.82 303.35 401.11 C 301.80 401.50 300.26 401.89 298.71 402.29 C 298.80 400.28 299.05 398.29 299.54 396.34 Z"
     opacity="1.00"
     fill="#ffffff" />
  <path
     id="path182"
     d=" M 312.30 402.00 C 316.25 399.40 320.06 394.85 325.20 395.52 C 327.56 397.27 329.37 399.63 331.47 401.68 C 331.18 406.38 332.01 411.22 330.82 415.82 C 327.95 420.78 321.77 424.22 316.05 422.40 C 314.73 420.82 313.82 418.96 312.82 417.19 C 311.45 418.00 310.09 418.82 308.74 419.65 C 308.68 418.74 308.57 416.93 308.52 416.03 C 309.78 415.16 311.04 414.29 312.30 413.41 C 312.22 409.60 312.22 405.80 312.30 402.00 M 319.13 402.42 C 319.13 406.08 319.13 409.74 319.14 413.40 C 320.97 414.14 322.80 414.92 324.63 415.70 C 324.61 412.22 324.62 408.76 324.58 405.29 C 322.75 404.35 320.93 403.39 319.13 402.42 Z"
     opacity="1.00"
     fill="#242021" />
  <path
     id="path184"
     d=" M 319.13 402.42 C 320.93 403.39 322.75 404.35 324.58 405.29 C 324.62 408.76 324.61 412.22 324.63 415.70 C 322.80 414.92 320.97 414.14 319.14 413.40 C 319.13 409.74 319.13 406.08 319.13 402.42 Z"
     opacity="1.00"
     fill="#ffffff" />
  <path
     id="path186"
     d=" M 74.60 430.30 C 74.19 426.81 75.93 422.35 80.04 422.38 C 83.84 422.01 85.99 425.91 86.01 429.22 C 92.45 429.24 98.89 429.23 105.32 429.22 C 105.30 433.36 105.30 437.51 105.32 441.65 C 98.77 441.70 92.23 441.59 85.68 441.47 C 85.61 443.71 86.04 446.48 84.02 448.06 C 81.60 450.66 76.94 449.71 75.41 446.60 C 74.06 444.74 75.03 442.45 75.39 440.45 C 73.07 440.52 70.25 441.50 68.36 439.63 C 65.40 437.53 65.71 432.60 68.78 430.78 C 70.53 429.60 72.66 430.11 74.60 430.30 M 77.33 429.79 C 77.32 433.83 77.33 437.87 77.31 441.91 C 78.98 441.96 80.65 442.03 82.32 442.10 C 82.31 437.99 82.32 433.89 82.31 429.79 C 80.65 429.79 78.99 429.79 77.33 429.79 Z"
     opacity="1.00"
     fill="#ffffff" />
  <path
     id="path192"
     d=" M 77.33 429.79 C 78.99 429.79 80.65 429.79 82.31 429.79 C 82.32 433.89 82.31 437.99 82.32 442.10 C 80.65 442.03 78.98 441.96 77.31 441.91 C 77.33 437.87 77.32 433.83 77.33 429.79 Z"
     opacity="1.00"
     fill="#242021" />
  <path
     id="path194"
     d=" M 388.25 429.24 C 394.52 429.21 400.80 429.25 407.08 429.21 C 408.76 429.26 410.57 429.04 412.14 429.85 C 416.33 431.87 420.45 434.03 424.61 436.12 C 420.04 438.06 415.65 440.41 411.03 442.22 C 403.46 442.65 395.85 442.25 388.27 442.42 C 388.28 438.02 388.29 433.63 388.25 429.24 M 393.32 434.50 C 391.08 436.76 394.59 438.74 396.77 437.78 C 397.38 435.55 395.75 432.09 393.32 434.50 M 403.32 437.64 C 404.70 437.70 406.09 437.70 407.47 437.66 C 407.50 436.62 407.53 435.58 407.55 434.55 C 406.89 434.36 405.58 433.99 404.92 433.80 C 403.26 434.44 403.47 436.21 403.32 437.64 Z"
     opacity="1.00"
     fill="#ffffff" />
  <path
     id="path198"
     d=" M 393.32 434.50 C 395.75 432.09 397.38 435.55 396.77 437.78 C 394.59 438.74 391.08 436.76 393.32 434.50 Z"
     opacity="1.00"
     fill="#242021" />
  <path
     id="path200"
     d=" M 403.32 437.64 C 403.47 436.21 403.26 434.44 404.92 433.80 C 405.58 433.99 406.89 434.36 407.55 434.55 C 407.53 435.58 407.50 436.62 407.47 437.66 C 406.09 437.70 404.70 437.70 403.32 437.64 Z"
     opacity="1.00"
     fill="#242021" />
  <path
     id="path206"
     d=" M 7.24 441.54 C 7.26 441.60 7.31 441.73 7.33 441.79 C 7.31 441.73 7.26 441.60 7.24 441.54 Z"
     opacity="0.91"
     fill="#8b8a8a" />
  <path
     id="path210"
     d=" M 8.35 444.51 C 8.37 444.55 8.41 444.63 8.43 444.67 C 8.41 444.63 8.37 444.55 8.35 444.51 Z"
     opacity="0.91"
     fill="#8b8a8a" />
  <path
     id="path212"
     d=" M 481.74 445.75 C 481.77 445.70 481.83 445.59 481.86 445.54 C 481.83 445.59 481.77 445.70 481.74 445.75 Z"
     opacity="0.91"
     fill="#8b8a8a" />
  <path
     id="path214"
     d=" M 9.34 446.49 C 9.36 446.54 9.40 446.62 9.42 446.67 C 9.40 446.62 9.36 446.54 9.34 446.49 Z"
     opacity="0.91"
     fill="#8b8a8a" />
  <path
     id="path216"
     d=" M 480.62 447.73 C 480.64 447.69 480.68 447.61 480.71 447.56 C 480.68 447.61 480.64 447.69 480.62 447.73 Z"
     opacity="0.91"
     fill="#8b8a8a" />
  <path
     id="path218"
     d=" M 10.37 448.48 L 10.40 448.55 L 10.43 448.61 C 10.42 448.58 10.38 448.51 10.37 448.48 Z"
     opacity="0.91"
     fill="#8b8a8a" />
  <path
     id="path220"
     d=" M 479.57 449.69 C 479.60 449.64 479.66 449.54 479.68 449.49 C 479.66 449.54 479.60 449.64 479.57 449.69 Z"
     opacity="0.91"
     fill="#8b8a8a" />
  <path
     id="path222"
     d=" M 478.60 451.56 L 478.64 451.49 C 478.62 451.52 478.59 451.58 478.57 451.62 L 478.60 451.56 Z"
     opacity="0.91"
     fill="#8b8a8a" />
  <path
     id="path224"
     d=" M 243.37 455.71 C 248.49 454.78 254.16 454.72 258.82 457.33 C 260.62 458.27 262.22 459.93 262.41 462.04 C 261.19 465.29 257.76 466.94 254.58 467.68 C 249.47 469.01 243.82 468.52 239.15 466.01 C 237.37 464.79 234.65 462.62 236.19 460.23 C 237.60 457.60 240.67 456.50 243.37 455.71 Z"
     opacity="1.00"
     fill="#ffffff" />
  <path
     style="opacity:1;fill:#242021;stroke:#242021;stroke-opacity:1"
     id="path6"
     d="M 4.94,1.91 6,1.86 C 13.32,1.53 20.65,1.76 27.98,1.7 180.16,1.73 332.34,1.64 484.52,1.73 c 0.76,5.4 0.44,10.85 0.48,16.28 0.02,128.66 -0.03,257.31 0.02,385.97 0.43,7 0.18,14.01 0.14,21.02 l 0.01,1.21 -0.01,0.59 -0.018,3.487 -0.34201,4.55601 -0.56799,2.96597 -0.62094,2.07799 -0.72104,2.31303 -0.52787,2.09606 -0.50213,1.24394 -0.12,0.21 -1.03,1.81 -0.09,0.17 -0.94,1.76 -0.11,0.2 -0.93,1.8 -0.04,0.07 -0.03,0.06 -1.14,1.95 c -1.81249,3.1003 -4.15229,5.63565 -6.73,8.2 l -1.93,1.92 -9,8 c -2.34388,2.08345 -4.65578,3.99924 -6.99,6 l -7,6 -7.01,6 -8,7 -6.99,6 -6.03,4.99 -7.98,7.01 -7,6 -8,7 -6.99,6 -7.01,6 -6.99,6 -7.01,6 -8,7 -6.99,6 -7.01,6 -7,6 -7.99,7 -7,6 -7.01,6 -7,5.99 -7,6.01 -8,7 -7,6 -7,6 -7,6 -8,7 -6.99,6 -7.01,6 c -1.73791,1.48751 -3.39121,2.91787 -5.16,4.3 -4.3839,-2.34189 -8.30006,-6.04192 -12.38,-9.3 l -7,-6 -8,-7 -7.99,-7 -8.01,-7 -7,-6 -8,-7 -8,-7 -7.01,-6 -7.99,-7 -8,-7 -8,-7 -7,-6 -8,-7 -8,-7 -8,-7 -7,-6 -8.01,-7 -7.99,-7 -7.01,-6 -7.99,-7 -8,-7 -8,-7 -7,-6 -8,-7 -8,-7 -7,-6 c -2.511835,-2.153 -5.173878,-4.35007 -8,-7 -2.826122,-2.64993 -6.361003,-5.58976 -8.9,-8.94 -1.591731,-2.10031 -3.24,-4.07 -4.77,-6.18 -0.28,-0.49 -0.84,-1.47 -1.13,-1.96 l -0.03,-0.06 -0.03,-0.07 -0.95,-1.81 C 9.4,446.62 9.36,446.54 9.34,446.49 L 8.43,444.67 8.35,444.51 C 8.09,443.83 7.58,442.47 7.33,441.79 L 7.24,441.54 6.6693877,439.15303 6.161516,437.22152 5.7624198,434.17606 5.34,428.26 5,424.01 C 4.56,410.33 4.79,396.64 4.74,382.96 l 0,-365.95 C 4.71,12.34 4.68,7.67 4.89,3 L 4.94,1.91 m 4.28,4.93 c 0.25,9.98 -0.04,19.97 0.12,29.95 32.8,-0.02 65.6,0.08 98.4,-0.04 C 107.6,26.63 107.84,16.5 107.64,6.38 79.42,6.55 51.2,6.41 22.99,6.46 18.4,6.53 13.78,6.13 9.22,6.84 M 144.2,6.43 c -0.05,10.14 -0.07,20.28 0.03,30.42 32.8,-0.18 65.6,0.11 98.41,-0.15 C 242.5,26.75 242.4,16.78 242.73,6.83 238.18,6.17 233.59,6.52 229.02,6.46 200.74,6.43 172.47,6.5 144.2,6.43 m -33.3,0.98 c -0.13,10.93 0.34,21.85 0.28,32.78 -33.75,0.04 -67.5,0 -101.24,0.03 -0.01,9.8 0,19.6 -0.01,29.4 33.66,0.05 67.33,0.04 100.99,0.01 0,10.91 0.01,21.82 0,32.73 9.93,0.09 19.87,-0.01 29.8,0.06 -0.05,-10.93 0.02,-21.86 -0.02,-32.79 33.81,0.01 67.63,0.06 101.45,-0.03 -0.03,-9.78 0,-19.57 -0.02,-29.36 -33.81,-0.09 -67.62,0 -101.43,-0.04 0.02,-10.96 -0.03,-21.92 0.04,-32.88 -9.95,0.03 -19.9,-0.11 -29.84,0.09 M 247.49,6.69 c -0.03,31.91 -0.01,63.82 -0.01,95.73 77.56,-0.07 155.12,0.02 232.68,-0.05 0.02,-31.87 0.01,-63.75 0.01,-95.62 C 402.61,6.66 325.05,6.78 247.49,6.69 M 9.43,73.12 c -0.02,9.81 -0.01,19.63 -0.05,29.45 31.53,0.05 63.06,-0.02 94.59,0.04 1.17,-0.01 2.34,-0.08 3.5,-0.23 0.49,-9.73 -0.07,-19.51 0.22,-29.26 -32.75,-0.26 -65.51,-0.25 -98.26,0 m 134.72,0 c 0.2,9.85 -0.14,19.71 0.2,29.56 32.71,-0.26 65.42,0 98.13,-0.13 -0.06,-9.81 -0.16,-19.62 0.04,-29.43 -3.18,-0.13 -6.36,-0.21 -9.55,-0.17 -29.6,0.14 -59.22,-0.2 -88.82,0.17 m 103.16,34.21 c -0.11,9.83 -0.03,19.66 -0.08,29.49 32.82,0.12 65.66,0.19 98.48,-0.04 -0.34,-9.8 -0.09,-19.6 -0.17,-29.4 -32.74,0.01 -65.49,0.08 -98.23,-0.05 m 134.93,0.12 c -0.09,9.79 0,19.59 -0.03,29.39 32.65,0.03 65.3,0.1 97.96,-0.02 -0.09,-9.8 -0.03,-19.6 -0.07,-29.41 -32.62,0.1 -65.24,0.03 -97.86,0.04 M 9.6,107.59 c 0,31.61 0.01,63.21 -0.01,94.81 77.57,-0.02 155.14,0.01 232.7,-0.01 -0.02,-31.59 -0.02,-63.19 0,-94.78 -77.56,-0.02 -155.13,0.01 -232.69,-0.02 m 339.22,0.17 c -0.01,10.87 -0.03,21.73 0.01,32.6 -33.69,-0.03 -67.37,-0.01 -101.06,-0.02 0.03,9.82 -0.02,19.64 0.02,29.47 33.67,-0.04 67.34,0.02 101.02,-0.03 0.01,10.91 0,21.83 -0.01,32.74 9.98,0.05 19.95,-0.01 29.93,0.03 -0.07,-10.92 0,-21.83 -0.04,-32.75 33.71,-0.04 67.42,0.06 101.13,-0.05 -0.08,-9.8 -0.04,-19.6 -0.02,-29.4 -33.7,0 -67.4,-0.02 -101.1,0.01 0,-10.88 0.02,-21.75 -0.01,-32.63 -9.96,0.04 -19.91,-0.01 -29.87,0.03 m -101.58,65.47 c -0.05,9.83 -0.06,19.65 0.01,29.48 32.79,-0.14 65.58,-0.04 98.36,-0.05 -0.06,-9.83 0.09,-19.67 -0.08,-29.5 -32.76,0.12 -65.53,-0.03 -98.29,0.07 m 134.99,0.06 c -0.09,9.75 -0.05,19.51 -0.03,29.26 32.65,0.13 65.29,-0.05 97.93,0.08 -0.01,-9.8 -0.02,-19.6 0.01,-29.4 -32.64,0.03 -65.28,-0.09 -97.91,0.06 M 247.3,207.36 c -0.09,29.36 -0.1,58.73 0.02,88.09 4.14,-2.98 8.07,-6.35 12.8,-8.39 15.34,-7.34 34.09,-6.15 48.97,1.77 7.8,4.09 14.64,10.16 23.26,12.58 5.15,1.44 11.1,2.68 15.86,-0.53 -0.04,3.09 -0.03,6.18 -0.02,9.28 1.78,0.03 3.56,0.06 5.34,0.1 0.67,0.73 1.35,1.45 2.03,2.18 0.03,2.19 0.06,4.37 0.1,6.56 2.63,0.01 5.32,-0.3 7.9,0.37 1.07,1.79 0.83,3.94 0.97,5.94 3.36,0.18 6.72,0.23 10.09,0.21 -0.03,2.29 -0.05,4.58 -0.06,6.87 3.44,0.09 6.89,-0.08 10.33,0.14 1.77,0.02 3.15,1.73 3.08,3.46 0.32,5.55 -0.01,11.12 0.13,16.68 6.97,-0.07 13.96,-0.05 20.94,-0.06 3.34,-0.21 6.12,1.88 9,3.25 4.2,2.29 8.67,4.05 12.75,6.55 0.04,0.33 0.13,1.01 0.17,1.34 -5.44,2.78 -11.13,5.02 -16.6,7.73 -2.27,1.24 -4.86,1.6 -7.41,1.39 -6.3,-0.4 -12.6,-0.5 -18.9,-0.27 0.13,17.7 -0.13,35.4 0.13,53.1 6.93,0.12 13.86,-0.03 20.8,0.01 3.39,-0.2 6.23,1.91 9.16,3.29 4.64,2.54 9.6,4.49 13.99,7.48 -6.87,2.86 -13.46,6.38 -20.37,9.11 -7.88,0.65 -15.81,-0.1 -23.7,0.26 0.03,7.37 0,14.75 0.05,22.12 -0.09,2.48 0.13,5.41 -1.89,7.25 -3.52,3.35 -8.7,3.05 -13.19,3.37 -7.35,0.6 -14.74,0.62 -22.08,-0.08 -14.99,-0.67 -29.49,-4.81 -44.01,-8.24 -11.09,-2.72 -22.66,-2.52 -33.92,-1.02 -3.5,0.51 -7.11,1.02 -10.22,2.82 -4.72,2.71 -10.13,3.93 -15.5,4.43 -0.05,56.79 -0.17,113.58 0.06,170.37 7.72,-5.72 14.67,-12.4 22.05,-18.55 60.11,-51.86 120.29,-103.64 180.44,-155.47 8.78,-7.84 18.59,-14.92 24.92,-25.06 4.74,-7.31 4.84,-16.36 5.42,-24.75 0.58,-6.68 0.2,-13.37 -0.06,-20.05 -0.07,-65.2 0.08,-130.41 -0.08,-195.61 -77.58,0.04 -155.17,0.05 -232.75,-0.02 M 9.6,207.6 c 0.03,70.13 -0.05,140.25 0.04,210.38 0.71,8.48 0.21,17.53 4.24,25.3 5.91,11.56 16.82,19.1 26.2,27.62 67.36,58.72 134.82,117.31 202.19,176.02 0.03,-56.76 0,-113.52 0.02,-170.28 -4.1,-0.76 -8.25,-1.73 -11.81,-3.99 -4.26,-2.86 -9.56,-3.02 -14.48,-3.72 -8.31,-0.67 -16.77,-1.01 -24.99,0.67 -12.21,2.3 -24.04,6.21 -36.17,8.84 -13.07,2.84 -26.55,4.56 -39.93,3.44 -4.03,-0.29 -9.53,-2.19 -9.58,-7.01 -0.07,-9.85 -0.01,-19.7 -0.01,-29.55 -5.25,-0.01 -10.51,0.07 -15.76,-0.14 -0.96,3.46 -3.22,6.88 -6.93,7.73 -5.4,1.71 -11.05,-2.66 -11.64,-8.1 -4.22,-0.92 -8.21,-4.19 -8.38,-8.77 -0.53,-4.99 3.63,-9.35 8.46,-9.91 1.14,-4.02 4.57,-7.35 8.89,-7.46 4.29,-0.27 7.84,2.97 9.3,6.79 5.35,0.09 10.71,0.02 16.06,0.05 -0.02,-17.77 -0.01,-35.55 0,-53.33 -5.25,0.03 -10.5,0.05 -15.75,-0.01 -1.07,5 -6.11,9.06 -11.3,7.72 -3.97,-0.79 -6.72,-4.36 -7.24,-8.26 -4.58,-0.87 -8.81,-4.74 -8.44,-9.69 0,-4.69 4,-8.29 8.44,-8.94 1.22,-3.93 4.56,-7.41 8.89,-7.4 4.31,-0.34 7.91,2.91 9.33,6.75 5.33,0.09 10.65,0.03 15.98,0.04 0.11,-6.62 -0.31,-13.25 0.35,-19.85 3.31,-0.29 6.64,-0.33 9.96,-0.29 0.25,-2.36 0.83,-4.66 1.33,-6.97 2.9,-0.01 5.8,-0.01 8.69,0 0.01,-2.18 0.02,-4.35 0.03,-6.53 2.67,0.01 5.34,0.02 8.01,0.02 -0.02,-2.9 -0.02,-5.81 -0.05,-8.71 l 8.74,0 c -0.03,-3.25 0.19,-6.49 0.45,-9.72 4.06,4.2 10.14,2.66 15.11,1.43 9.47,-2.37 16.77,-9.29 25.41,-13.45 18.6,-9.47 43.43,-8.13 59.04,6.52 -0.04,-29.07 -0.01,-58.15 -0.01,-87.23 -77.56,-0.02 -155.13,0 -232.69,-0.01 m 237.91,93.77 c -0.31,46.55 -0.1,93.1 -0.37,139.64 5.42,-5.68 12.22,-10.01 19.7,-12.45 13.21,-4.25 27.86,-4.46 40.92,0.51 9.05,3.1 17.35,8.47 26.9,10.05 3.3,0.6 6.59,-0.32 9.75,-1.21 0.14,-43.75 -0.03,-87.5 0.08,-131.24 -4.35,0.2 -8.76,0 -12.94,-1.3 -10.9,-2.8 -19.08,-11.16 -29.38,-15.29 -8.53,-3.67 -18.03,-4.48 -27.2,-3.54 -10.59,1.27 -20.56,6.69 -27.46,14.83 m -53.1,-13.09 c -9.35,2.31 -17.13,8.19 -25.27,13.02 -6.8,4.11 -14.79,6.09 -22.72,5.97 0.17,3.57 -0.41,7.1 -0.57,10.66 -0.02,40.08 0.01,80.15 -0.01,120.23 8.06,3.38 16.62,-0.07 24.04,-3.44 9.27,-4.23 18.88,-8.26 29.17,-8.93 15.94,-0.84 33.05,3.6 44.18,15.64 0.04,-5.66 -0.11,-11.31 -0.05,-16.97 -2.26,0.02 -4.53,0.04 -6.79,0.06 0.02,-2.22 0.03,-4.44 0.05,-6.65 2.24,0.1 4.49,0.21 6.73,0.35 0.03,-34.06 -0.05,-68.12 -0.12,-102.19 -0.51,-4.8 0.12,-9.71 -0.57,-14.47 -11.24,-13.97 -31.31,-17.93 -48.07,-13.28 m 153.46,27.12 c 0.02,40.55 0.01,81.1 0.01,121.65 0.47,3.77 -3.92,5.09 -6.87,5.48 -10.04,1.45 -19.24,-3.64 -28.14,-7.44 -9.59,-4.31 -20.21,-7.32 -30.79,-5.81 -12.35,0.79 -24.91,5.61 -33.03,15.25 0.7,-0.02 2.1,-0.05 2.8,-0.06 4.61,-3.4 9.76,-6.06 15.34,-7.44 12.95,-3.3 26.86,-3.13 39.61,0.99 10.06,3.18 19.55,8.46 30.17,9.66 5.11,0.61 10.73,1.44 15.4,-1.3 -0.03,-41.26 -0.04,-82.51 0.01,-123.77 -0.46,-0.06 -1.38,-0.17 -1.84,-0.22 l 0.09,-7.08 c -0.69,0.02 -2.07,0.07 -2.76,0.09 m -209.96,0.24 c -0.01,41.78 0.02,83.55 -0.02,125.33 0.21,2.07 -0.58,4.53 0.83,6.3 3.47,1.77 7.51,1.27 11.26,1.18 16.2,-0.97 29.96,-11.26 46.04,-12.86 13.96,-1.1 29.23,-0.22 40.97,8.28 1.09,1.09 2.65,0.77 4.05,0.84 -5.72,-6.69 -13.68,-11.21 -22.17,-13.32 -10.51,-2.62 -21.84,-3.07 -32.19,0.5 -10.47,3.2 -19.86,9.63 -30.85,11.13 -3.28,0.55 -6.64,0.05 -9.78,-0.92 -1.8,-0.64 -3.95,-2.03 -3.71,-4.21 -0.02,-40.77 -0.03,-81.55 0,-122.32 -1.48,0.02 -2.96,0.04 -4.43,0.07 m -8.64,8.29 c -0.05,43.39 -0.04,86.78 0,130.16 -0.4,2.59 2.97,2.58 4.71,3.04 5.66,0.46 11.41,0.44 17.02,-0.61 13.73,-2.23 26.26,-8.89 39.97,-11.24 6.92,-1.33 14.02,-1.11 21.02,-0.72 6.19,0.45 12.5,1.19 18.21,3.79 1.32,-0.73 2.64,-1.47 3.95,-2.21 -16.81,-9.96 -38.32,-9.31 -56.01,-1.97 -11.63,4.81 -24.1,9.39 -36.9,7.7 -3.07,-0.37 -7.06,-2.17 -6.77,-5.84 -0.02,-40.7 0.02,-81.39 -0.03,-122.09 -1.72,-0.01 -3.45,-0.01 -5.17,-0.01 m 226.52,-0.45 c 0.01,40.5 -0.01,81.01 0.02,121.52 0,1.54 -0.08,3.33 -1.45,4.34 -4.04,3.16 -9.55,2.36 -14.33,2.3 -16.58,-0.68 -30.62,-11.37 -47.03,-12.91 -12.55,-0.94 -26.04,0.07 -36.84,7.16 1.86,0.46 3.73,2.16 5.73,1.31 7.71,-2.8 16,-2.96 24.1,-3.41 13.08,-0.32 25.57,4.05 37.74,8.3 11.8,3.84 24.83,7.09 37.06,3.43 0.63,-8.81 0.26,-17.65 0.36,-26.48 0.01,-32.02 -0.01,-64.04 0,-96.06 -0.09,-3.2 -1.19,-6.27 -0.99,-9.49 -1.46,-0.01 -2.92,-0.02 -4.37,-0.01 m -235.24,7.33 c -0.09,1.62 -0.17,3.25 -0.3,4.88 -1.08,1.95 -0.85,4.21 -0.87,6.35 0.18,40.36 -0.26,80.72 0.26,121.07 10.88,2.94 22.42,1.11 33.29,-1.05 15.65,-3.45 30.83,-9.8 47.06,-9.98 8.07,0.11 16.21,0.26 24.14,1.91 0.95,-1.06 1.89,-2.12 2.84,-3.16 -8.03,-2.63 -16.56,-2.77 -24.92,-3.08 -19.23,0.08 -36.07,11.37 -55.05,12.9 -5.02,0.25 -10.08,0.35 -15.08,-0.18 -2.77,-0.4 -6.21,-2.14 -6.31,-5.31 -0.1,-41.45 0.06,-82.89 -0.08,-124.34 -1.66,0 -3.32,-0.01 -4.98,-0.01 m 244.11,-0.17 c -0.03,41.92 0.09,83.84 -0.08,125.76 -3.84,5.13 -10.98,4.04 -16.6,4.22 -19.55,-0.11 -36.69,-11.52 -55.98,-13.04 -9.29,-0.43 -18.69,0.24 -27.74,2.46 0.98,1.13 1.98,2.26 2.97,3.39 11.81,-1.91 24.01,-2.64 35.84,-0.43 15.81,2.85 30.84,9.38 46.95,10.72 6.85,0.65 14.02,1.15 20.66,-1.07 0.17,-36.9 -0.2,-73.8 0.19,-110.69 0.57,-7.12 -0.73,-14.23 0.08,-21.32 -2.1,-0.01 -4.2,-0.01 -6.29,0 m -252.39,8.68 c 0.24,45.01 0.14,90.01 0.18,135.02 5.82,0.79 11.71,0.52 17.56,0.46 19.2,-0.68 37.36,-7.51 55.98,-11.47 11.98,-2.68 24.45,-2.56 36.54,-0.7 0.03,-1.74 0.07,-3.49 0.12,-5.23 -11.76,-1.89 -23.92,-2.69 -35.68,-0.34 -13.89,2.8 -27.2,8.01 -41.26,10.03 -8.11,1.07 -16.41,1.79 -24.51,0.28 -2.57,-0.55 -5.48,-2.34 -5.27,-5.34 -0.38,-40.89 -0.15,-81.79 -0.14,-122.69 -1.18,-0.01 -2.35,-0.02 -3.52,-0.02 m 262.23,-0.01 c -0.14,41.4 -0.13,82.8 -0.07,124.2 -1.69,2.01 -3.97,3.54 -6.64,3.79 -8.96,0.87 -18.06,0.5 -26.91,-1.18 -15.48,-2.73 -30.15,-9.09 -45.86,-10.59 -8.73,-0.55 -17.51,-0.04 -26.16,1.23 0.31,2.01 0.44,4.04 0.47,6.08 8.79,-1.47 17.76,-1.84 26.66,-1.33 10.92,0.97 21.39,4.42 32.06,6.73 16.83,3.92 34.29,4.57 51.45,2.93 1.18,-0.21 1.72,-0.91 1.6,-2.09 0.42,-13.71 -0.6,-27.38 -0.4,-41.07 0.04,-29.56 -0.05,-59.12 0.05,-88.68 -2.09,-0.01 -4.17,-0.02 -6.25,-0.02 M 74.42,357.12 c -4.23,-1.7 -9.42,2.06 -7.95,6.73 1.13,3.96 5.58,4.28 8.97,3.46 -0.58,2.27 -1.4,4.92 0.44,6.87 1.92,2.94 6.46,3.01 8.59,0.29 1.52,-1.6 1.1,-3.95 1.23,-5.93 6.52,0.01 13.04,-0.03 19.56,0.02 -0.06,-4.21 -0.03,-8.42 -0.03,-12.62 -6.42,-0.02 -12.85,0.05 -19.28,-0.04 0.1,-3.67 -2.87,-7.5 -6.84,-6.53 -3.65,0.65 -4.53,4.62 -4.69,7.75 m 313.88,-1.18 c -0.03,4.45 -0.03,8.9 0,13.36 7.24,-0.19 14.49,0.21 21.73,0.01 5.13,-1.46 9.71,-4.4 14.69,-6.32 -4.69,-2.12 -9.14,-4.75 -13.86,-6.77 -7.49,-0.66 -15.05,-0.09 -22.56,-0.28 M 74.6,430.3 c -1.94,-0.19 -4.07,-0.7 -5.82,0.48 -3.07,1.82 -3.38,6.75 -0.42,8.85 1.89,1.87 4.71,0.89 7.03,0.82 -0.36,2 -1.33,4.29 0.02,6.15 1.53,3.11 6.19,4.06 8.61,1.46 2.02,-1.58 1.59,-4.35 1.66,-6.59 6.55,0.12 13.09,0.23 19.64,0.18 -0.02,-4.14 -0.02,-8.29 0,-12.43 -6.43,0.01 -12.87,0.02 -19.31,0 -0.02,-3.31 -2.17,-7.21 -5.97,-6.84 -4.11,-0.03 -5.85,4.43 -5.44,7.92 m 313.65,-1.06 c 0.04,4.39 0.03,8.78 0.02,13.18 7.58,-0.17 15.19,0.23 22.76,-0.2 4.62,-1.81 9.01,-4.16 13.58,-6.1 -4.16,-2.09 -8.28,-4.25 -12.47,-6.27 -1.57,-0.81 -3.38,-0.59 -5.06,-0.64 -6.28,0.04 -12.56,0 -18.83,0.03 m -144.88,26.47 c -2.7,0.79 -5.77,1.89 -7.18,4.52 -1.54,2.39 1.18,4.56 2.96,5.78 4.67,2.51 10.32,3 15.43,1.67 3.18,-0.74 6.61,-2.39 7.83,-5.64 -0.19,-2.11 -1.79,-3.77 -3.59,-4.71 -4.66,-2.61 -10.33,-2.55 -15.45,-1.62 z" />
</svg>
